M48
;DRILL file {KiCad (5.0.1)-rc2} date 06/12/2020 20:15:21
;FORMAT={-:-/ absolute / inch / decimal}
FMAT,2
INCH,TZ
T1C0.0157
T2C0.0160
T3C0.0315
T4C0.0394
T5C0.0866
%
G90
G05
M72
T1
X1.01Y-4.2
X1.0291Y-4.1541
X1.0291Y-4.2459
X1.075Y-4.135
X1.075Y-4.265
X1.1209Y-4.1541
X1.1209Y-4.2459
X1.14Y-4.2
X4.705Y-4.2
X4.7241Y-4.1541
X4.7241Y-4.2459
X4.77Y-4.135
X4.77Y-4.265
X4.8159Y-4.1541
X4.8159Y-4.2459
X4.835Y-4.2
T2
X1.22Y-3.775
X1.22Y-3.85
X1.22Y-3.95
X1.22Y-4.05
X1.22Y-4.25
X1.22Y-4.35
X1.22Y-4.45
X1.22Y-4.55
X1.22Y-4.65
X1.22Y-4.75
X1.22Y-4.85
X1.22Y-4.925
X1.27Y-3.775
X1.3Y-4.925
X1.49Y-4.45
X1.49Y-4.545
X1.5Y-3.785
X1.54Y-4.545
X1.545Y-4.8
X1.59Y-4.225
X1.59Y-4.545
X1.6Y-4.05
X1.63Y-4.225
X1.75Y-4.35
X1.75Y-4.545
X1.8Y-4.35
X1.8Y-4.545
X1.85Y-4.35
X1.85Y-4.545
X1.9Y-4.05
X1.925Y-4.545
X1.97Y-4.226
X2.Y-4.05
X2.009Y-4.226
X2.01Y-4.545
X2.1Y-4.45
X2.1Y-4.545
X2.265Y-3.86
X2.3Y-4.845
X2.35Y-4.845
X2.4Y-3.86
X2.4Y-4.845
X2.41Y-4.15
X2.41Y-4.525
X2.415Y-4.76
X2.45Y-4.845
X2.46Y-3.86
X2.46Y-3.975
X2.5Y-4.77
X2.515Y-3.86
X2.515Y-3.975
X2.59Y-4.26
X2.62Y-4.31
X2.66Y-4.23
X2.68Y-4.52
X2.69Y-4.77
X2.695Y-4.185
X2.725Y-4.23
X2.73Y-4.52
X2.755Y-4.15
X2.755Y-4.26
X2.79Y-4.665
X2.795Y-4.11
X2.8198Y-4.81
X2.82Y-4.635
X2.84Y-4.075
X2.85Y-4.665
X2.85Y-4.775
X2.87Y-4.605
X2.88Y-4.035
X2.885Y-4.81
X2.91Y-4.605
X2.915Y-4.845
X2.92Y-3.995
X2.945Y-4.26
X2.95Y-4.605
X2.95Y-4.76
X2.96Y-3.955
X2.98Y-4.79
X2.99Y-4.605
X3.Y-3.915
X3.01Y-4.82
X3.03Y-4.605
X3.04Y-3.875
X3.04Y-4.85
X3.07Y-4.605
X3.07Y-4.88
X3.09Y-4.425
X3.105Y-3.835
X3.105Y-3.875
X3.105Y-3.955
X3.105Y-3.995
X3.105Y-4.035
X3.105Y-4.075
X3.105Y-4.115
X3.11Y-4.605
X3.135Y-3.915
X3.135Y-4.39
X3.15Y-4.55
X3.15Y-4.605
X3.2Y-3.835
X3.2Y-3.9
X3.295Y-4.085
X3.295Y-4.155
X3.3Y-3.835
X3.3Y-3.9
X3.315Y-4.405
X3.315Y-4.615
X3.335Y-3.975
X3.335Y-4.44
X3.335Y-4.55
X3.34Y-4.915
X3.39Y-4.915
X3.425Y-3.995
X3.44Y-4.915
X3.465Y-3.95
X3.465Y-3.995
X3.485Y-4.88
X3.485Y-4.95
X3.53Y-4.85
X3.53Y-4.91
X3.58Y-4.82
X3.58Y-4.865
X3.6Y-4.95
X3.63Y-4.865
X3.68Y-4.91
X3.685Y-3.89
X3.705Y-4.95
X3.735Y-4.405
X3.735Y-4.865
X3.735Y-4.91
X3.765Y-4.44
X3.795Y-3.935
X3.795Y-4.375
X3.8Y-4.95
X3.84Y-4.315
X3.84Y-4.375
X3.86Y-3.75
X3.895Y-3.705
X3.9Y-4.95
X3.93Y-3.95
X3.93Y-4.025
X3.96Y-3.995
X3.96Y-4.375
X3.97Y-4.155
X4.Y-4.5
X4.Y-4.55
X4.Y-4.95
X4.01Y-4.155
X4.02Y-3.95
X4.025Y-3.825
X4.04Y-4.375
X4.05Y-4.155
X4.05Y-4.85
X4.065Y-3.825
X4.09Y-3.705
X4.09Y-4.155
X4.1Y-4.95
X4.105Y-3.825
X4.13Y-4.155
X4.15Y-3.825
X4.15Y-4.85
X4.17Y-4.155
X4.185Y-4.345
X4.19Y-3.825
X4.2Y-4.95
X4.215Y-4.375
X4.23Y-3.825
X4.23Y-3.865
X4.23Y-3.93
X4.25Y-4.55
X4.25Y-4.85
X4.26Y-3.9
X4.265Y-4.052
X4.29Y-3.79
X4.3Y-4.95
X4.32Y-4.225
X4.32Y-4.3
X4.32Y-4.375
X4.35Y-4.85
X4.375Y-4.5
X4.375Y-4.6
X4.4Y-4.95
X4.445Y-4.5
X4.445Y-4.6
X4.485Y-4.02
X4.485Y-4.1
X4.485Y-4.2
X4.485Y-4.3
X4.495Y-3.82
X4.5Y-4.7
X4.5Y-4.95
X4.55Y-4.5
X4.55Y-4.6
X4.6Y-4.95
X4.7Y-4.95
T3
X1.3Y-3.95
X1.3Y-4.05
X1.3Y-4.15
X1.3Y-4.25
X1.3Y-4.35
X1.3Y-4.45
X1.3Y-4.55
X1.3Y-4.65
X1.3Y-4.75
X1.4Y-3.85
X1.4Y-3.95
X1.4Y-4.05
X1.4Y-4.15
X1.4Y-4.25
X1.4Y-4.35
X1.4Y-4.45
X1.4Y-4.55
X1.4Y-4.65
X1.4Y-4.75
X1.4Y-4.85
X1.5Y-3.85
X1.5Y-3.95
X1.5Y-4.75
X1.5Y-4.85
X1.6Y-3.85
X1.6Y-3.95
X1.6Y-4.75
X1.6Y-4.85
X1.7Y-3.85
X1.7Y-3.95
X1.7Y-4.75
X1.7Y-4.85
X1.8Y-3.85
X1.8Y-3.95
X1.8Y-4.75
X1.8Y-4.85
X1.9Y-3.85
X1.9Y-3.95
X1.9Y-4.75
X1.9Y-4.85
X2.Y-3.85
X2.Y-3.95
X2.Y-4.75
X2.Y-4.85
X2.1Y-3.85
X2.1Y-3.95
X2.1Y-4.75
X2.1Y-4.85
X2.2Y-3.85
X2.2Y-3.95
X2.2Y-4.05
X2.2Y-4.15
X2.2Y-4.25
X2.2Y-4.35
X2.2Y-4.45
X2.2Y-4.55
X2.2Y-4.65
X2.2Y-4.75
X2.2Y-4.85
X2.3Y-3.95
X2.3Y-4.05
X2.3Y-4.15
X2.3Y-4.25
X2.3Y-4.35
X2.3Y-4.45
X2.3Y-4.55
X2.3Y-4.65
X2.3Y-4.75
X3.9Y-4.55
X3.9Y-4.85
X4.5Y-4.55
X4.5Y-4.85
T4
X4.77Y-4.69
X4.77Y-4.79
X4.77Y-4.89
X4.6Y-3.79
X4.6Y-3.89
X4.6Y-3.99
X4.6Y-4.09
X4.6Y-4.19
X4.6Y-4.29
X4.77Y-3.79
X4.77Y-3.89
X4.77Y-3.99
T5
X1.075Y-4.2
X4.77Y-4.2
T0
M30
