G04 #@! TF.GenerationSoftware,KiCad,Pcbnew,(5.0.1)-rc2*
G04 #@! TF.CreationDate,2020-12-06T20:15:16+01:00*
G04 #@! TF.ProjectId,A600_ACCEL_RAM,413630305F414343454C5F52414D2E6B,rev?*
G04 #@! TF.SameCoordinates,Original*
G04 #@! TF.FileFunction,Paste,Top*
G04 #@! TF.FilePolarity,Positive*
%FSLAX46Y46*%
G04 Gerber Fmt 4.6, Leading zero omitted, Abs format (unit mm)*
G04 Created by KiCad (PCBNEW (5.0.1)-rc2) date 06/12/2020 20:15:16*
%MOMM*%
%LPD*%
G01*
G04 APERTURE LIST*
%ADD10R,1.100000X0.250000*%
%ADD11R,0.600000X1.500000*%
%ADD12R,1.500000X0.600000*%
%ADD13R,0.560000X1.600000*%
%ADD14R,1.600000X0.560000*%
%ADD15R,1.800000X2.600000*%
%ADD16R,1.500000X2.000000*%
%ADD17R,3.800000X2.000000*%
%ADD18R,1.000000X1.250000*%
%ADD19R,1.250000X1.000000*%
%ADD20R,0.700000X1.300000*%
%ADD21R,1.300000X0.700000*%
%ADD22R,1.200000X1.200000*%
G04 APERTURE END LIST*
D10*
G04 #@! TO.C,U3*
X66323000Y-106461000D03*
X66323000Y-105961000D03*
X66323000Y-105461000D03*
X66323000Y-104961000D03*
X66323000Y-104461000D03*
X66323000Y-103961000D03*
X66323000Y-103461000D03*
X66323000Y-102961000D03*
X66323000Y-102461000D03*
X66323000Y-101961000D03*
X66323000Y-101461000D03*
X66323000Y-100961000D03*
X66323000Y-100461000D03*
X66323000Y-99961000D03*
X66323000Y-99461000D03*
X66323000Y-98961000D03*
X66323000Y-98461000D03*
X66323000Y-97961000D03*
X66323000Y-97461000D03*
X66323000Y-96961000D03*
X66323000Y-96461000D03*
X66323000Y-95961000D03*
X66323000Y-95461000D03*
X85823000Y-94961000D03*
X85823000Y-95461000D03*
X85823000Y-95961000D03*
X85823000Y-96461000D03*
X85823000Y-96961000D03*
X85823000Y-97461000D03*
X85823000Y-97961000D03*
X85823000Y-98461000D03*
X85823000Y-98961000D03*
X85823000Y-99461000D03*
X85823000Y-99961000D03*
X85823000Y-100461000D03*
X85823000Y-100961000D03*
X85823000Y-101461000D03*
X85823000Y-101961000D03*
X85823000Y-102461000D03*
X85823000Y-102961000D03*
X85823000Y-103461000D03*
X85823000Y-103961000D03*
X85823000Y-104461000D03*
X85823000Y-104961000D03*
X85823000Y-105461000D03*
X85823000Y-105961000D03*
X66323000Y-94961000D03*
X85823000Y-106461000D03*
G04 #@! TD*
D11*
G04 #@! TO.C,U2*
X68422000Y-109702000D03*
X69222000Y-109702000D03*
X70022000Y-109702000D03*
X70822000Y-109702000D03*
X71622000Y-109702000D03*
X72422000Y-109702000D03*
X73222000Y-109702000D03*
X74022000Y-109702000D03*
X74822000Y-109702000D03*
X75622000Y-109702000D03*
X76422000Y-109702000D03*
X77222000Y-109702000D03*
X78022000Y-109702000D03*
X78822000Y-109702000D03*
X79622000Y-109702000D03*
X80422000Y-109702000D03*
D12*
X82322000Y-111602000D03*
X82322000Y-112402000D03*
X82322000Y-113202000D03*
X82322000Y-114002000D03*
X82322000Y-114802000D03*
X82322000Y-115602000D03*
X82322000Y-116402000D03*
X82322000Y-117202000D03*
X82322000Y-118002000D03*
X82322000Y-118802000D03*
X82322000Y-119602000D03*
X82322000Y-120402000D03*
X82322000Y-121202000D03*
X82322000Y-122002000D03*
X82322000Y-122802000D03*
X82322000Y-123602000D03*
D11*
X80422000Y-125502000D03*
X79622000Y-125502000D03*
X78822000Y-125502000D03*
X78022000Y-125502000D03*
X77222000Y-125502000D03*
X76422000Y-125502000D03*
X75622000Y-125502000D03*
X74822000Y-125502000D03*
X74022000Y-125502000D03*
X73222000Y-125502000D03*
X72422000Y-125502000D03*
X71622000Y-125502000D03*
X70822000Y-125502000D03*
X70022000Y-125502000D03*
X69222000Y-125502000D03*
X68422000Y-125502000D03*
D12*
X66522000Y-123602000D03*
X66522000Y-122802000D03*
X66522000Y-122002000D03*
X66522000Y-121202000D03*
X66522000Y-120402000D03*
X66522000Y-119602000D03*
X66522000Y-118802000D03*
X66522000Y-118002000D03*
X66522000Y-117202000D03*
X66522000Y-116402000D03*
X66522000Y-115602000D03*
X66522000Y-114802000D03*
X66522000Y-114002000D03*
X66522000Y-113202000D03*
X66522000Y-112402000D03*
X66522000Y-111602000D03*
G04 #@! TD*
D13*
G04 #@! TO.C,U4*
X107886000Y-107196000D03*
X107086000Y-107196000D03*
X106286000Y-107196000D03*
X105486000Y-107196000D03*
X104686000Y-107196000D03*
X103886000Y-107196000D03*
X103086000Y-107196000D03*
X102286000Y-107196000D03*
X101486000Y-107196000D03*
X100686000Y-107196000D03*
X99886000Y-107196000D03*
D14*
X98036000Y-105346000D03*
X98036000Y-104546000D03*
X98036000Y-103746000D03*
X98036000Y-102946000D03*
X98036000Y-102146000D03*
X98036000Y-101346000D03*
X98036000Y-100546000D03*
X98036000Y-99746000D03*
X98036000Y-98946000D03*
X98036000Y-98146000D03*
X98036000Y-97346000D03*
D13*
X99886000Y-95496000D03*
X100686000Y-95496000D03*
X101486000Y-95496000D03*
X102286000Y-95496000D03*
X103086000Y-95496000D03*
X103886000Y-95496000D03*
X104686000Y-95496000D03*
X105486000Y-95496000D03*
X106286000Y-95496000D03*
X107086000Y-95496000D03*
X107886000Y-95496000D03*
D14*
X109736000Y-97346000D03*
X109736000Y-98146000D03*
X109736000Y-98946000D03*
X109736000Y-99746000D03*
X109736000Y-100546000D03*
X109736000Y-101346000D03*
X109736000Y-102146000D03*
X109736000Y-102946000D03*
X109736000Y-103746000D03*
X109736000Y-104546000D03*
X109736000Y-105346000D03*
G04 #@! TD*
D15*
G04 #@! TO.C,C6*
X40386000Y-113206000D03*
X40386000Y-109806000D03*
G04 #@! TD*
D16*
G04 #@! TO.C,U5*
X48020000Y-107340000D03*
X43420000Y-107340000D03*
X45720000Y-107340000D03*
D17*
X45720000Y-113640000D03*
G04 #@! TD*
D15*
G04 #@! TO.C,C7*
X51054000Y-109806000D03*
X51054000Y-113206000D03*
G04 #@! TD*
D18*
G04 #@! TO.C,C1*
X107680000Y-119380000D03*
X105680000Y-119380000D03*
G04 #@! TD*
G04 #@! TO.C,C2*
X64627000Y-114935000D03*
X62627000Y-114935000D03*
G04 #@! TD*
D19*
G04 #@! TO.C,C8*
X112014000Y-95266000D03*
X112014000Y-97266000D03*
G04 #@! TD*
G04 #@! TO.C,C9*
X94996000Y-100822000D03*
X94996000Y-98822000D03*
G04 #@! TD*
D20*
G04 #@! TO.C,R1*
X64450000Y-112268000D03*
X62550000Y-112268000D03*
G04 #@! TD*
G04 #@! TO.C,R3*
X64450000Y-108204000D03*
X62550000Y-108204000D03*
G04 #@! TD*
G04 #@! TO.C,R4*
X62550000Y-119761000D03*
X64450000Y-119761000D03*
G04 #@! TD*
G04 #@! TO.C,R5*
X64450000Y-117195600D03*
X62550000Y-117195600D03*
G04 #@! TD*
D21*
G04 #@! TO.C,R6*
X112014000Y-98933000D03*
X112014000Y-100833000D03*
G04 #@! TD*
G04 #@! TO.C,R7*
X113919000Y-100833000D03*
X113919000Y-98933000D03*
G04 #@! TD*
G04 #@! TO.C,R8*
X38100000Y-103510000D03*
X38100000Y-105410000D03*
G04 #@! TD*
D20*
G04 #@! TO.C,R9*
X64450000Y-110236000D03*
X62550000Y-110236000D03*
G04 #@! TD*
D18*
G04 #@! TO.C,C10*
X102600000Y-109728000D03*
X100600000Y-109728000D03*
G04 #@! TD*
D22*
G04 #@! TO.C,D1*
X122174000Y-113835000D03*
X122174000Y-116035000D03*
G04 #@! TD*
G04 #@! TO.C,D2*
X120142000Y-116035000D03*
X120142000Y-113835000D03*
G04 #@! TD*
D21*
G04 #@! TO.C,R10*
X122174000Y-110175000D03*
X122174000Y-112075000D03*
G04 #@! TD*
G04 #@! TO.C,R11*
X120142000Y-112075000D03*
X120142000Y-110175000D03*
G04 #@! TD*
M02*
