G04 #@! TF.GenerationSoftware,KiCad,Pcbnew,(5.0.1)-rc2*
G04 #@! TF.CreationDate,2020-12-06T20:15:16+01:00*
G04 #@! TF.ProjectId,A600_ACCEL_RAM,413630305F414343454C5F52414D2E6B,rev?*
G04 #@! TF.SameCoordinates,Original*
G04 #@! TF.FileFunction,Legend,Top*
G04 #@! TF.FilePolarity,Positive*
%FSLAX46Y46*%
G04 Gerber Fmt 4.6, Leading zero omitted, Abs format (unit mm)*
G04 Created by KiCad (PCBNEW (5.0.1)-rc2) date 06/12/2020 20:15:16*
%MOMM*%
%LPD*%
G01*
G04 APERTURE LIST*
%ADD10C,0.127000*%
%ADD11C,0.203200*%
%ADD12C,0.150000*%
%ADD13C,0.100000*%
%ADD14C,0.120000*%
%ADD15C,0.010000*%
%ADD16C,0.152400*%
G04 APERTURE END LIST*
D10*
X112975571Y-103214714D02*
X113447285Y-103214714D01*
X113193285Y-103505000D01*
X113302142Y-103505000D01*
X113374714Y-103541285D01*
X113411000Y-103577571D01*
X113447285Y-103650142D01*
X113447285Y-103831571D01*
X113411000Y-103904142D01*
X113374714Y-103940428D01*
X113302142Y-103976714D01*
X113084428Y-103976714D01*
X113011857Y-103940428D01*
X112975571Y-103904142D01*
X113665000Y-103214714D02*
X113919000Y-103976714D01*
X114173000Y-103214714D01*
X114354428Y-103214714D02*
X114826142Y-103214714D01*
X114572142Y-103505000D01*
X114681000Y-103505000D01*
X114753571Y-103541285D01*
X114789857Y-103577571D01*
X114826142Y-103650142D01*
X114826142Y-103831571D01*
X114789857Y-103904142D01*
X114753571Y-103940428D01*
X114681000Y-103976714D01*
X114463285Y-103976714D01*
X114390714Y-103940428D01*
X114354428Y-103904142D01*
X113338428Y-104521000D02*
X113265857Y-104484714D01*
X113157000Y-104484714D01*
X113048142Y-104521000D01*
X112975571Y-104593571D01*
X112939285Y-104666142D01*
X112903000Y-104811285D01*
X112903000Y-104920142D01*
X112939285Y-105065285D01*
X112975571Y-105137857D01*
X113048142Y-105210428D01*
X113157000Y-105246714D01*
X113229571Y-105246714D01*
X113338428Y-105210428D01*
X113374714Y-105174142D01*
X113374714Y-104920142D01*
X113229571Y-104920142D01*
X113701285Y-105246714D02*
X113701285Y-104484714D01*
X114136714Y-105246714D01*
X114136714Y-104484714D01*
X114499571Y-105246714D02*
X114499571Y-104484714D01*
X114681000Y-104484714D01*
X114789857Y-104521000D01*
X114862428Y-104593571D01*
X114898714Y-104666142D01*
X114935000Y-104811285D01*
X114935000Y-104920142D01*
X114898714Y-105065285D01*
X114862428Y-105137857D01*
X114789857Y-105210428D01*
X114681000Y-105246714D01*
X114499571Y-105246714D01*
X112939285Y-105754714D02*
X113374714Y-105754714D01*
X113157000Y-106516714D02*
X113157000Y-105754714D01*
X114064142Y-106444142D02*
X114027857Y-106480428D01*
X113919000Y-106516714D01*
X113846428Y-106516714D01*
X113737571Y-106480428D01*
X113665000Y-106407857D01*
X113628714Y-106335285D01*
X113592428Y-106190142D01*
X113592428Y-106081285D01*
X113628714Y-105936142D01*
X113665000Y-105863571D01*
X113737571Y-105791000D01*
X113846428Y-105754714D01*
X113919000Y-105754714D01*
X114027857Y-105791000D01*
X114064142Y-105827285D01*
X114390714Y-106516714D02*
X114390714Y-105754714D01*
X114826142Y-106516714D02*
X114499571Y-106081285D01*
X114826142Y-105754714D02*
X114390714Y-106190142D01*
X112921142Y-107024714D02*
X113356571Y-107024714D01*
X113138857Y-107786714D02*
X113138857Y-107024714D01*
X113610571Y-107786714D02*
X113610571Y-107024714D01*
X113792000Y-107024714D01*
X113900857Y-107061000D01*
X113973428Y-107133571D01*
X114009714Y-107206142D01*
X114046000Y-107351285D01*
X114046000Y-107460142D01*
X114009714Y-107605285D01*
X113973428Y-107677857D01*
X113900857Y-107750428D01*
X113792000Y-107786714D01*
X113610571Y-107786714D01*
X114517714Y-107024714D02*
X114662857Y-107024714D01*
X114735428Y-107061000D01*
X114808000Y-107133571D01*
X114844285Y-107278714D01*
X114844285Y-107532714D01*
X114808000Y-107677857D01*
X114735428Y-107750428D01*
X114662857Y-107786714D01*
X114517714Y-107786714D01*
X114445142Y-107750428D01*
X114372571Y-107677857D01*
X114336285Y-107532714D01*
X114336285Y-107278714D01*
X114372571Y-107133571D01*
X114445142Y-107061000D01*
X114517714Y-107024714D01*
X113138857Y-108294714D02*
X113574285Y-108294714D01*
X113356571Y-109056714D02*
X113356571Y-108294714D01*
X113828285Y-109056714D02*
X113828285Y-108294714D01*
X114009714Y-108294714D01*
X114118571Y-108331000D01*
X114191142Y-108403571D01*
X114227428Y-108476142D01*
X114263714Y-108621285D01*
X114263714Y-108730142D01*
X114227428Y-108875285D01*
X114191142Y-108947857D01*
X114118571Y-109020428D01*
X114009714Y-109056714D01*
X113828285Y-109056714D01*
X114590285Y-109056714D02*
X114590285Y-108294714D01*
X112903000Y-109564714D02*
X113338428Y-109564714D01*
X113120714Y-110326714D02*
X113120714Y-109564714D01*
X113592428Y-110326714D02*
X113592428Y-109564714D01*
X113846428Y-110109000D01*
X114100428Y-109564714D01*
X114100428Y-110326714D01*
X114427000Y-110290428D02*
X114535857Y-110326714D01*
X114717285Y-110326714D01*
X114789857Y-110290428D01*
X114826142Y-110254142D01*
X114862428Y-110181571D01*
X114862428Y-110109000D01*
X114826142Y-110036428D01*
X114789857Y-110000142D01*
X114717285Y-109963857D01*
X114572142Y-109927571D01*
X114499571Y-109891285D01*
X114463285Y-109855000D01*
X114427000Y-109782428D01*
X114427000Y-109709857D01*
X114463285Y-109637285D01*
X114499571Y-109601000D01*
X114572142Y-109564714D01*
X114753571Y-109564714D01*
X114862428Y-109601000D01*
D11*
X105886794Y-108778221D02*
X105886794Y-109594650D01*
X105832365Y-109757935D01*
X105723508Y-109866792D01*
X105560222Y-109921221D01*
X105451365Y-109921221D01*
X106376651Y-108887078D02*
X106431080Y-108832650D01*
X106539937Y-108778221D01*
X106812080Y-108778221D01*
X106920937Y-108832650D01*
X106975365Y-108887078D01*
X107029794Y-108995935D01*
X107029794Y-109104792D01*
X106975365Y-109268078D01*
X106322222Y-109921221D01*
X107029794Y-109921221D01*
X107519651Y-109485792D02*
X108390508Y-109485792D01*
X107955080Y-109921221D02*
X107955080Y-109050364D01*
X109261365Y-108778221D02*
X109261365Y-109594650D01*
X109206937Y-109757935D01*
X109098080Y-109866792D01*
X108934794Y-109921221D01*
X108825937Y-109921221D01*
X109696794Y-108778221D02*
X110404365Y-108778221D01*
X110023365Y-109213650D01*
X110186651Y-109213650D01*
X110295508Y-109268078D01*
X110349937Y-109322507D01*
X110404365Y-109431364D01*
X110404365Y-109703507D01*
X110349937Y-109812364D01*
X110295508Y-109866792D01*
X110186651Y-109921221D01*
X109860080Y-109921221D01*
X109751222Y-109866792D01*
X109696794Y-109812364D01*
X105560222Y-110695921D02*
X105560222Y-111621207D01*
X105614651Y-111730064D01*
X105669080Y-111784492D01*
X105777937Y-111838921D01*
X105995651Y-111838921D01*
X106104508Y-111784492D01*
X106158937Y-111730064D01*
X106213365Y-111621207D01*
X106213365Y-110695921D01*
X106703222Y-111784492D02*
X106866508Y-111838921D01*
X107138651Y-111838921D01*
X107247508Y-111784492D01*
X107301937Y-111730064D01*
X107356365Y-111621207D01*
X107356365Y-111512350D01*
X107301937Y-111403492D01*
X107247508Y-111349064D01*
X107138651Y-111294635D01*
X106920937Y-111240207D01*
X106812080Y-111185778D01*
X106757651Y-111131350D01*
X106703222Y-111022492D01*
X106703222Y-110913635D01*
X106757651Y-110804778D01*
X106812080Y-110750350D01*
X106920937Y-110695921D01*
X107193080Y-110695921D01*
X107356365Y-110750350D01*
X107846222Y-111240207D02*
X108227222Y-111240207D01*
X108390508Y-111838921D02*
X107846222Y-111838921D01*
X107846222Y-110695921D01*
X108390508Y-110695921D01*
X109533508Y-111838921D02*
X109152508Y-111294635D01*
X108880365Y-111838921D02*
X108880365Y-110695921D01*
X109315794Y-110695921D01*
X109424651Y-110750350D01*
X109479080Y-110804778D01*
X109533508Y-110913635D01*
X109533508Y-111076921D01*
X109479080Y-111185778D01*
X109424651Y-111240207D01*
X109315794Y-111294635D01*
X108880365Y-111294635D01*
X110894222Y-111838921D02*
X110894222Y-110695921D01*
X111329651Y-110695921D01*
X111438508Y-110750350D01*
X111492937Y-110804778D01*
X111547365Y-110913635D01*
X111547365Y-111076921D01*
X111492937Y-111185778D01*
X111438508Y-111240207D01*
X111329651Y-111294635D01*
X110894222Y-111294635D01*
X112254937Y-110695921D02*
X112472651Y-110695921D01*
X112581508Y-110750350D01*
X112690365Y-110859207D01*
X112744794Y-111076921D01*
X112744794Y-111457921D01*
X112690365Y-111675635D01*
X112581508Y-111784492D01*
X112472651Y-111838921D01*
X112254937Y-111838921D01*
X112146080Y-111784492D01*
X112037222Y-111675635D01*
X111982794Y-111457921D01*
X111982794Y-111076921D01*
X112037222Y-110859207D01*
X112146080Y-110750350D01*
X112254937Y-110695921D01*
X113887794Y-111838921D02*
X113506794Y-111294635D01*
X113234651Y-111838921D02*
X113234651Y-110695921D01*
X113670080Y-110695921D01*
X113778937Y-110750350D01*
X113833365Y-110804778D01*
X113887794Y-110913635D01*
X113887794Y-111076921D01*
X113833365Y-111185778D01*
X113778937Y-111240207D01*
X113670080Y-111294635D01*
X113234651Y-111294635D01*
X114214365Y-110695921D02*
X114867508Y-110695921D01*
X114540937Y-111838921D02*
X114540937Y-110695921D01*
X87437927Y-106934000D02*
X87375032Y-106825142D01*
X87249241Y-106498571D01*
X87186346Y-106280857D01*
X87123451Y-105954285D01*
X87060556Y-105410000D01*
X87060556Y-104974571D01*
X87123451Y-104430285D01*
X87186346Y-104103714D01*
X87249241Y-103886000D01*
X87375032Y-103559428D01*
X87437927Y-103450571D01*
X87941089Y-106063142D02*
X87941089Y-103777142D01*
X88381356Y-105410000D01*
X88821622Y-103777142D01*
X88821622Y-106063142D01*
X89387680Y-105410000D02*
X90016632Y-105410000D01*
X89261889Y-106063142D02*
X89702156Y-103777142D01*
X90142422Y-106063142D01*
X90582689Y-106063142D02*
X90582689Y-103777142D01*
X91085851Y-103777142D01*
X91211641Y-103886000D01*
X91274537Y-103994857D01*
X91337432Y-104212571D01*
X91337432Y-104539142D01*
X91274537Y-104756857D01*
X91211641Y-104865714D01*
X91085851Y-104974571D01*
X90582689Y-104974571D01*
X92658232Y-106063142D02*
X92217965Y-104974571D01*
X91903489Y-106063142D02*
X91903489Y-103777142D01*
X92406651Y-103777142D01*
X92532441Y-103886000D01*
X92595337Y-103994857D01*
X92658232Y-104212571D01*
X92658232Y-104539142D01*
X92595337Y-104756857D01*
X92532441Y-104865714D01*
X92406651Y-104974571D01*
X91903489Y-104974571D01*
X93475870Y-103777142D02*
X93727451Y-103777142D01*
X93853241Y-103886000D01*
X93979032Y-104103714D01*
X94041927Y-104539142D01*
X94041927Y-105301142D01*
X93979032Y-105736571D01*
X93853241Y-105954285D01*
X93727451Y-106063142D01*
X93475870Y-106063142D01*
X93350080Y-105954285D01*
X93224289Y-105736571D01*
X93161394Y-105301142D01*
X93161394Y-104539142D01*
X93224289Y-104103714D01*
X93350080Y-103886000D01*
X93475870Y-103777142D01*
X94607984Y-106063142D02*
X94607984Y-103777142D01*
X95048251Y-105410000D01*
X95488518Y-103777142D01*
X95488518Y-106063142D01*
X95991680Y-106934000D02*
X96054575Y-106825142D01*
X96180365Y-106498571D01*
X96243260Y-106280857D01*
X96306156Y-105954285D01*
X96369051Y-105410000D01*
X96369051Y-104974571D01*
X96306156Y-104430285D01*
X96243260Y-104103714D01*
X96180365Y-103886000D01*
X96054575Y-103559428D01*
X95991680Y-103450571D01*
X87235937Y-99888221D02*
X87344794Y-99888221D01*
X87453651Y-99942650D01*
X87508080Y-99997078D01*
X87562508Y-100105935D01*
X87616937Y-100323650D01*
X87616937Y-100595792D01*
X87562508Y-100813507D01*
X87508080Y-100922364D01*
X87453651Y-100976792D01*
X87344794Y-101031221D01*
X87235937Y-101031221D01*
X87127080Y-100976792D01*
X87072651Y-100922364D01*
X87018222Y-100813507D01*
X86963794Y-100595792D01*
X86963794Y-100323650D01*
X87018222Y-100105935D01*
X87072651Y-99997078D01*
X87127080Y-99942650D01*
X87235937Y-99888221D01*
X88106794Y-100922364D02*
X88161222Y-100976792D01*
X88106794Y-101031221D01*
X88052365Y-100976792D01*
X88106794Y-100922364D01*
X88106794Y-101031221D01*
X89195365Y-99888221D02*
X88651080Y-99888221D01*
X88596651Y-100432507D01*
X88651080Y-100378078D01*
X88759937Y-100323650D01*
X89032080Y-100323650D01*
X89140937Y-100378078D01*
X89195365Y-100432507D01*
X89249794Y-100541364D01*
X89249794Y-100813507D01*
X89195365Y-100922364D01*
X89140937Y-100976792D01*
X89032080Y-101031221D01*
X88759937Y-101031221D01*
X88651080Y-100976792D01*
X88596651Y-100922364D01*
X89739651Y-101031221D02*
X89739651Y-99888221D01*
X90120651Y-100704650D01*
X90501651Y-99888221D01*
X90501651Y-101031221D01*
X87725794Y-102404635D02*
X87671365Y-102350207D01*
X87562508Y-102295778D01*
X87453651Y-102295778D01*
X87344794Y-102350207D01*
X87290365Y-102404635D01*
X87235937Y-102513492D01*
X87235937Y-102622350D01*
X87290365Y-102731207D01*
X87344794Y-102785635D01*
X87453651Y-102840064D01*
X87562508Y-102840064D01*
X87671365Y-102785635D01*
X87725794Y-102731207D01*
X87725794Y-102295778D02*
X87725794Y-102731207D01*
X87780222Y-102785635D01*
X87834651Y-102785635D01*
X87943508Y-102731207D01*
X87997937Y-102622350D01*
X87997937Y-102350207D01*
X87889080Y-102186921D01*
X87725794Y-102078064D01*
X87508080Y-102023635D01*
X87290365Y-102078064D01*
X87127080Y-102186921D01*
X87018222Y-102350207D01*
X86963794Y-102567921D01*
X87018222Y-102785635D01*
X87127080Y-102948921D01*
X87290365Y-103057778D01*
X87508080Y-103112207D01*
X87725794Y-103057778D01*
X87889080Y-102948921D01*
X88705508Y-101805921D02*
X88814365Y-101805921D01*
X88923222Y-101860350D01*
X88977651Y-101914778D01*
X89032080Y-102023635D01*
X89086508Y-102241350D01*
X89086508Y-102513492D01*
X89032080Y-102731207D01*
X88977651Y-102840064D01*
X88923222Y-102894492D01*
X88814365Y-102948921D01*
X88705508Y-102948921D01*
X88596651Y-102894492D01*
X88542222Y-102840064D01*
X88487794Y-102731207D01*
X88433365Y-102513492D01*
X88433365Y-102241350D01*
X88487794Y-102023635D01*
X88542222Y-101914778D01*
X88596651Y-101860350D01*
X88705508Y-101805921D01*
X89467508Y-102948921D02*
X90066222Y-102186921D01*
X89467508Y-102186921D02*
X90066222Y-102948921D01*
X90882651Y-102350207D02*
X90501651Y-102350207D01*
X90501651Y-102948921D02*
X90501651Y-101805921D01*
X91045937Y-101805921D01*
X91644651Y-102295778D02*
X91535794Y-102241350D01*
X91481365Y-102186921D01*
X91426937Y-102078064D01*
X91426937Y-102023635D01*
X91481365Y-101914778D01*
X91535794Y-101860350D01*
X91644651Y-101805921D01*
X91862365Y-101805921D01*
X91971222Y-101860350D01*
X92025651Y-101914778D01*
X92080080Y-102023635D01*
X92080080Y-102078064D01*
X92025651Y-102186921D01*
X91971222Y-102241350D01*
X91862365Y-102295778D01*
X91644651Y-102295778D01*
X91535794Y-102350207D01*
X91481365Y-102404635D01*
X91426937Y-102513492D01*
X91426937Y-102731207D01*
X91481365Y-102840064D01*
X91535794Y-102894492D01*
X91644651Y-102948921D01*
X91862365Y-102948921D01*
X91971222Y-102894492D01*
X92025651Y-102840064D01*
X92080080Y-102731207D01*
X92080080Y-102513492D01*
X92025651Y-102404635D01*
X91971222Y-102350207D01*
X91862365Y-102295778D01*
X92787651Y-101805921D02*
X92896508Y-101805921D01*
X93005365Y-101860350D01*
X93059794Y-101914778D01*
X93114222Y-102023635D01*
X93168651Y-102241350D01*
X93168651Y-102513492D01*
X93114222Y-102731207D01*
X93059794Y-102840064D01*
X93005365Y-102894492D01*
X92896508Y-102948921D01*
X92787651Y-102948921D01*
X92678794Y-102894492D01*
X92624365Y-102840064D01*
X92569937Y-102731207D01*
X92515508Y-102513492D01*
X92515508Y-102241350D01*
X92569937Y-102023635D01*
X92624365Y-101914778D01*
X92678794Y-101860350D01*
X92787651Y-101805921D01*
X93876222Y-101805921D02*
X93985080Y-101805921D01*
X94093937Y-101860350D01*
X94148365Y-101914778D01*
X94202794Y-102023635D01*
X94257222Y-102241350D01*
X94257222Y-102513492D01*
X94202794Y-102731207D01*
X94148365Y-102840064D01*
X94093937Y-102894492D01*
X93985080Y-102948921D01*
X93876222Y-102948921D01*
X93767365Y-102894492D01*
X93712937Y-102840064D01*
X93658508Y-102731207D01*
X93604080Y-102513492D01*
X93604080Y-102241350D01*
X93658508Y-102023635D01*
X93712937Y-101914778D01*
X93767365Y-101860350D01*
X93876222Y-101805921D01*
X94964794Y-101805921D02*
X95073651Y-101805921D01*
X95182508Y-101860350D01*
X95236937Y-101914778D01*
X95291365Y-102023635D01*
X95345794Y-102241350D01*
X95345794Y-102513492D01*
X95291365Y-102731207D01*
X95236937Y-102840064D01*
X95182508Y-102894492D01*
X95073651Y-102948921D01*
X94964794Y-102948921D01*
X94855937Y-102894492D01*
X94801508Y-102840064D01*
X94747080Y-102731207D01*
X94692651Y-102513492D01*
X94692651Y-102241350D01*
X94747080Y-102023635D01*
X94801508Y-101914778D01*
X94855937Y-101860350D01*
X94964794Y-101805921D01*
X96053365Y-101805921D02*
X96162222Y-101805921D01*
X96271080Y-101860350D01*
X96325508Y-101914778D01*
X96379937Y-102023635D01*
X96434365Y-102241350D01*
X96434365Y-102513492D01*
X96379937Y-102731207D01*
X96325508Y-102840064D01*
X96271080Y-102894492D01*
X96162222Y-102948921D01*
X96053365Y-102948921D01*
X95944508Y-102894492D01*
X95890080Y-102840064D01*
X95835651Y-102731207D01*
X95781222Y-102513492D01*
X95781222Y-102241350D01*
X95835651Y-102023635D01*
X95890080Y-101914778D01*
X95944508Y-101860350D01*
X96053365Y-101805921D01*
X87616937Y-96078221D02*
X86963794Y-96078221D01*
X87290365Y-96078221D02*
X87290365Y-94935221D01*
X87181508Y-95098507D01*
X87072651Y-95207364D01*
X86963794Y-95261792D01*
X88106794Y-95969364D02*
X88161222Y-96023792D01*
X88106794Y-96078221D01*
X88052365Y-96023792D01*
X88106794Y-95969364D01*
X88106794Y-96078221D01*
X89195365Y-94935221D02*
X88651080Y-94935221D01*
X88596651Y-95479507D01*
X88651080Y-95425078D01*
X88759937Y-95370650D01*
X89032080Y-95370650D01*
X89140937Y-95425078D01*
X89195365Y-95479507D01*
X89249794Y-95588364D01*
X89249794Y-95860507D01*
X89195365Y-95969364D01*
X89140937Y-96023792D01*
X89032080Y-96078221D01*
X88759937Y-96078221D01*
X88651080Y-96023792D01*
X88596651Y-95969364D01*
X89739651Y-96078221D02*
X89739651Y-94935221D01*
X90120651Y-95751650D01*
X90501651Y-94935221D01*
X90501651Y-96078221D01*
X87725794Y-97451635D02*
X87671365Y-97397207D01*
X87562508Y-97342778D01*
X87453651Y-97342778D01*
X87344794Y-97397207D01*
X87290365Y-97451635D01*
X87235937Y-97560492D01*
X87235937Y-97669350D01*
X87290365Y-97778207D01*
X87344794Y-97832635D01*
X87453651Y-97887064D01*
X87562508Y-97887064D01*
X87671365Y-97832635D01*
X87725794Y-97778207D01*
X87725794Y-97342778D02*
X87725794Y-97778207D01*
X87780222Y-97832635D01*
X87834651Y-97832635D01*
X87943508Y-97778207D01*
X87997937Y-97669350D01*
X87997937Y-97397207D01*
X87889080Y-97233921D01*
X87725794Y-97125064D01*
X87508080Y-97070635D01*
X87290365Y-97125064D01*
X87127080Y-97233921D01*
X87018222Y-97397207D01*
X86963794Y-97614921D01*
X87018222Y-97832635D01*
X87127080Y-97995921D01*
X87290365Y-98104778D01*
X87508080Y-98159207D01*
X87725794Y-98104778D01*
X87889080Y-97995921D01*
X88705508Y-96852921D02*
X88814365Y-96852921D01*
X88923222Y-96907350D01*
X88977651Y-96961778D01*
X89032080Y-97070635D01*
X89086508Y-97288350D01*
X89086508Y-97560492D01*
X89032080Y-97778207D01*
X88977651Y-97887064D01*
X88923222Y-97941492D01*
X88814365Y-97995921D01*
X88705508Y-97995921D01*
X88596651Y-97941492D01*
X88542222Y-97887064D01*
X88487794Y-97778207D01*
X88433365Y-97560492D01*
X88433365Y-97288350D01*
X88487794Y-97070635D01*
X88542222Y-96961778D01*
X88596651Y-96907350D01*
X88705508Y-96852921D01*
X89467508Y-97995921D02*
X90066222Y-97233921D01*
X89467508Y-97233921D02*
X90066222Y-97995921D01*
X91154794Y-97887064D02*
X91100365Y-97941492D01*
X90937080Y-97995921D01*
X90828222Y-97995921D01*
X90664937Y-97941492D01*
X90556080Y-97832635D01*
X90501651Y-97723778D01*
X90447222Y-97506064D01*
X90447222Y-97342778D01*
X90501651Y-97125064D01*
X90556080Y-97016207D01*
X90664937Y-96907350D01*
X90828222Y-96852921D01*
X90937080Y-96852921D01*
X91100365Y-96907350D01*
X91154794Y-96961778D01*
X91862365Y-96852921D02*
X91971222Y-96852921D01*
X92080080Y-96907350D01*
X92134508Y-96961778D01*
X92188937Y-97070635D01*
X92243365Y-97288350D01*
X92243365Y-97560492D01*
X92188937Y-97778207D01*
X92134508Y-97887064D01*
X92080080Y-97941492D01*
X91971222Y-97995921D01*
X91862365Y-97995921D01*
X91753508Y-97941492D01*
X91699080Y-97887064D01*
X91644651Y-97778207D01*
X91590222Y-97560492D01*
X91590222Y-97288350D01*
X91644651Y-97070635D01*
X91699080Y-96961778D01*
X91753508Y-96907350D01*
X91862365Y-96852921D01*
X92950937Y-96852921D02*
X93059794Y-96852921D01*
X93168651Y-96907350D01*
X93223080Y-96961778D01*
X93277508Y-97070635D01*
X93331937Y-97288350D01*
X93331937Y-97560492D01*
X93277508Y-97778207D01*
X93223080Y-97887064D01*
X93168651Y-97941492D01*
X93059794Y-97995921D01*
X92950937Y-97995921D01*
X92842080Y-97941492D01*
X92787651Y-97887064D01*
X92733222Y-97778207D01*
X92678794Y-97560492D01*
X92678794Y-97288350D01*
X92733222Y-97070635D01*
X92787651Y-96961778D01*
X92842080Y-96907350D01*
X92950937Y-96852921D01*
X94039508Y-96852921D02*
X94148365Y-96852921D01*
X94257222Y-96907350D01*
X94311651Y-96961778D01*
X94366080Y-97070635D01*
X94420508Y-97288350D01*
X94420508Y-97560492D01*
X94366080Y-97778207D01*
X94311651Y-97887064D01*
X94257222Y-97941492D01*
X94148365Y-97995921D01*
X94039508Y-97995921D01*
X93930651Y-97941492D01*
X93876222Y-97887064D01*
X93821794Y-97778207D01*
X93767365Y-97560492D01*
X93767365Y-97288350D01*
X93821794Y-97070635D01*
X93876222Y-96961778D01*
X93930651Y-96907350D01*
X94039508Y-96852921D01*
X95128080Y-96852921D02*
X95236937Y-96852921D01*
X95345794Y-96907350D01*
X95400222Y-96961778D01*
X95454651Y-97070635D01*
X95509080Y-97288350D01*
X95509080Y-97560492D01*
X95454651Y-97778207D01*
X95400222Y-97887064D01*
X95345794Y-97941492D01*
X95236937Y-97995921D01*
X95128080Y-97995921D01*
X95019222Y-97941492D01*
X94964794Y-97887064D01*
X94910365Y-97778207D01*
X94855937Y-97560492D01*
X94855937Y-97288350D01*
X94910365Y-97070635D01*
X94964794Y-96961778D01*
X95019222Y-96907350D01*
X95128080Y-96852921D01*
X96216651Y-96852921D02*
X96325508Y-96852921D01*
X96434365Y-96907350D01*
X96488794Y-96961778D01*
X96543222Y-97070635D01*
X96597651Y-97288350D01*
X96597651Y-97560492D01*
X96543222Y-97778207D01*
X96488794Y-97887064D01*
X96434365Y-97941492D01*
X96325508Y-97995921D01*
X96216651Y-97995921D01*
X96107794Y-97941492D01*
X96053365Y-97887064D01*
X95998937Y-97778207D01*
X95944508Y-97560492D01*
X95944508Y-97288350D01*
X95998937Y-97070635D01*
X96053365Y-96961778D01*
X96107794Y-96907350D01*
X96216651Y-96852921D01*
D12*
X110736333Y-93432380D02*
X110736333Y-94146666D01*
X110688714Y-94289523D01*
X110593476Y-94384761D01*
X110450619Y-94432380D01*
X110355380Y-94432380D01*
X111069666Y-93432380D02*
X111641095Y-93432380D01*
X111355380Y-94432380D02*
X111355380Y-93432380D01*
X111926809Y-94146666D02*
X112403000Y-94146666D01*
X111831571Y-94432380D02*
X112164904Y-93432380D01*
X112498238Y-94432380D01*
X113355380Y-93480000D02*
X113260142Y-93432380D01*
X113117285Y-93432380D01*
X112974428Y-93480000D01*
X112879190Y-93575238D01*
X112831571Y-93670476D01*
X112783952Y-93860952D01*
X112783952Y-94003809D01*
X112831571Y-94194285D01*
X112879190Y-94289523D01*
X112974428Y-94384761D01*
X113117285Y-94432380D01*
X113212523Y-94432380D01*
X113355380Y-94384761D01*
X113403000Y-94337142D01*
X113403000Y-94003809D01*
X113212523Y-94003809D01*
X114593476Y-93765714D02*
X115355380Y-94051428D01*
X114593476Y-94337142D01*
D11*
X85461928Y-111080550D02*
X86006214Y-111080550D01*
X85353071Y-111407121D02*
X85734071Y-110264121D01*
X86115071Y-111407121D01*
X86496071Y-111407121D02*
X86496071Y-110264121D01*
X86877071Y-111080550D01*
X87258071Y-110264121D01*
X87258071Y-111407121D01*
X87802357Y-111407121D02*
X87802357Y-110264121D01*
X88945357Y-110318550D02*
X88836500Y-110264121D01*
X88673214Y-110264121D01*
X88509928Y-110318550D01*
X88401071Y-110427407D01*
X88346642Y-110536264D01*
X88292214Y-110753978D01*
X88292214Y-110917264D01*
X88346642Y-111134978D01*
X88401071Y-111243835D01*
X88509928Y-111352692D01*
X88673214Y-111407121D01*
X88782071Y-111407121D01*
X88945357Y-111352692D01*
X88999785Y-111298264D01*
X88999785Y-110917264D01*
X88782071Y-110917264D01*
X89435214Y-111080550D02*
X89979500Y-111080550D01*
X89326357Y-111407121D02*
X89707357Y-110264121D01*
X90088357Y-111407121D01*
X91830071Y-110264121D02*
X91612357Y-110264121D01*
X91503500Y-110318550D01*
X91449071Y-110372978D01*
X91340214Y-110536264D01*
X91285785Y-110753978D01*
X91285785Y-111189407D01*
X91340214Y-111298264D01*
X91394642Y-111352692D01*
X91503500Y-111407121D01*
X91721214Y-111407121D01*
X91830071Y-111352692D01*
X91884500Y-111298264D01*
X91938928Y-111189407D01*
X91938928Y-110917264D01*
X91884500Y-110808407D01*
X91830071Y-110753978D01*
X91721214Y-110699550D01*
X91503500Y-110699550D01*
X91394642Y-110753978D01*
X91340214Y-110808407D01*
X91285785Y-110917264D01*
X92646500Y-110264121D02*
X92755357Y-110264121D01*
X92864214Y-110318550D01*
X92918642Y-110372978D01*
X92973071Y-110481835D01*
X93027500Y-110699550D01*
X93027500Y-110971692D01*
X92973071Y-111189407D01*
X92918642Y-111298264D01*
X92864214Y-111352692D01*
X92755357Y-111407121D01*
X92646500Y-111407121D01*
X92537642Y-111352692D01*
X92483214Y-111298264D01*
X92428785Y-111189407D01*
X92374357Y-110971692D01*
X92374357Y-110699550D01*
X92428785Y-110481835D01*
X92483214Y-110372978D01*
X92537642Y-110318550D01*
X92646500Y-110264121D01*
X93735071Y-110264121D02*
X93843928Y-110264121D01*
X93952785Y-110318550D01*
X94007214Y-110372978D01*
X94061642Y-110481835D01*
X94116071Y-110699550D01*
X94116071Y-110971692D01*
X94061642Y-111189407D01*
X94007214Y-111298264D01*
X93952785Y-111352692D01*
X93843928Y-111407121D01*
X93735071Y-111407121D01*
X93626214Y-111352692D01*
X93571785Y-111298264D01*
X93517357Y-111189407D01*
X93462928Y-110971692D01*
X93462928Y-110699550D01*
X93517357Y-110481835D01*
X93571785Y-110372978D01*
X93626214Y-110318550D01*
X93735071Y-110264121D01*
X84210071Y-112998250D02*
X84754357Y-112998250D01*
X84101214Y-113324821D02*
X84482214Y-112181821D01*
X84863214Y-113324821D01*
X85897357Y-113215964D02*
X85842928Y-113270392D01*
X85679642Y-113324821D01*
X85570785Y-113324821D01*
X85407500Y-113270392D01*
X85298642Y-113161535D01*
X85244214Y-113052678D01*
X85189785Y-112834964D01*
X85189785Y-112671678D01*
X85244214Y-112453964D01*
X85298642Y-112345107D01*
X85407500Y-112236250D01*
X85570785Y-112181821D01*
X85679642Y-112181821D01*
X85842928Y-112236250D01*
X85897357Y-112290678D01*
X87040357Y-113215964D02*
X86985928Y-113270392D01*
X86822642Y-113324821D01*
X86713785Y-113324821D01*
X86550500Y-113270392D01*
X86441642Y-113161535D01*
X86387214Y-113052678D01*
X86332785Y-112834964D01*
X86332785Y-112671678D01*
X86387214Y-112453964D01*
X86441642Y-112345107D01*
X86550500Y-112236250D01*
X86713785Y-112181821D01*
X86822642Y-112181821D01*
X86985928Y-112236250D01*
X87040357Y-112290678D01*
X87530214Y-112726107D02*
X87911214Y-112726107D01*
X88074500Y-113324821D02*
X87530214Y-113324821D01*
X87530214Y-112181821D01*
X88074500Y-112181821D01*
X89108642Y-113324821D02*
X88564357Y-113324821D01*
X88564357Y-112181821D01*
X89489642Y-112726107D02*
X89870642Y-112726107D01*
X90033928Y-113324821D02*
X89489642Y-113324821D01*
X89489642Y-112181821D01*
X90033928Y-112181821D01*
X91176928Y-113324821D02*
X90795928Y-112780535D01*
X90523785Y-113324821D02*
X90523785Y-112181821D01*
X90959214Y-112181821D01*
X91068071Y-112236250D01*
X91122500Y-112290678D01*
X91176928Y-112399535D01*
X91176928Y-112562821D01*
X91122500Y-112671678D01*
X91068071Y-112726107D01*
X90959214Y-112780535D01*
X90523785Y-112780535D01*
X91612357Y-112998250D02*
X92156642Y-112998250D01*
X91503500Y-113324821D02*
X91884500Y-112181821D01*
X92265500Y-113324821D01*
X92483214Y-112181821D02*
X93136357Y-112181821D01*
X92809785Y-113324821D02*
X92809785Y-112181821D01*
X93735071Y-112181821D02*
X93952785Y-112181821D01*
X94061642Y-112236250D01*
X94170500Y-112345107D01*
X94224928Y-112562821D01*
X94224928Y-112943821D01*
X94170500Y-113161535D01*
X94061642Y-113270392D01*
X93952785Y-113324821D01*
X93735071Y-113324821D01*
X93626214Y-113270392D01*
X93517357Y-113161535D01*
X93462928Y-112943821D01*
X93462928Y-112562821D01*
X93517357Y-112345107D01*
X93626214Y-112236250D01*
X93735071Y-112181821D01*
X95367928Y-113324821D02*
X94986928Y-112780535D01*
X94714785Y-113324821D02*
X94714785Y-112181821D01*
X95150214Y-112181821D01*
X95259071Y-112236250D01*
X95313500Y-112290678D01*
X95367928Y-112399535D01*
X95367928Y-112562821D01*
X95313500Y-112671678D01*
X95259071Y-112726107D01*
X95150214Y-112780535D01*
X94714785Y-112780535D01*
X86768214Y-114643807D02*
X86387214Y-114643807D01*
X86387214Y-115242521D02*
X86387214Y-114099521D01*
X86931500Y-114099521D01*
X87312500Y-114915950D02*
X87856785Y-114915950D01*
X87203642Y-115242521D02*
X87584642Y-114099521D01*
X87965642Y-115242521D01*
X88292214Y-115188092D02*
X88455500Y-115242521D01*
X88727642Y-115242521D01*
X88836500Y-115188092D01*
X88890928Y-115133664D01*
X88945357Y-115024807D01*
X88945357Y-114915950D01*
X88890928Y-114807092D01*
X88836500Y-114752664D01*
X88727642Y-114698235D01*
X88509928Y-114643807D01*
X88401071Y-114589378D01*
X88346642Y-114534950D01*
X88292214Y-114426092D01*
X88292214Y-114317235D01*
X88346642Y-114208378D01*
X88401071Y-114153950D01*
X88509928Y-114099521D01*
X88782071Y-114099521D01*
X88945357Y-114153950D01*
X89271928Y-114099521D02*
X89925071Y-114099521D01*
X89598500Y-115242521D02*
X89598500Y-114099521D01*
X90959214Y-115242521D02*
X90578214Y-114698235D01*
X90306071Y-115242521D02*
X90306071Y-114099521D01*
X90741500Y-114099521D01*
X90850357Y-114153950D01*
X90904785Y-114208378D01*
X90959214Y-114317235D01*
X90959214Y-114480521D01*
X90904785Y-114589378D01*
X90850357Y-114643807D01*
X90741500Y-114698235D01*
X90306071Y-114698235D01*
X91394642Y-114915950D02*
X91938928Y-114915950D01*
X91285785Y-115242521D02*
X91666785Y-114099521D01*
X92047785Y-115242521D01*
X92428785Y-115242521D02*
X92428785Y-114099521D01*
X92809785Y-114915950D01*
X93190785Y-114099521D01*
X93190785Y-115242521D01*
X84836000Y-122913321D02*
X84836000Y-121770321D01*
X85271428Y-121770321D01*
X85380285Y-121824750D01*
X85434714Y-121879178D01*
X85489142Y-121988035D01*
X85489142Y-122151321D01*
X85434714Y-122260178D01*
X85380285Y-122314607D01*
X85271428Y-122369035D01*
X84836000Y-122369035D01*
X85924571Y-122586750D02*
X86468857Y-122586750D01*
X85815714Y-122913321D02*
X86196714Y-121770321D01*
X86577714Y-122913321D01*
X86958714Y-121770321D02*
X86958714Y-122695607D01*
X87013142Y-122804464D01*
X87067571Y-122858892D01*
X87176428Y-122913321D01*
X87394142Y-122913321D01*
X87503000Y-122858892D01*
X87557428Y-122804464D01*
X87611857Y-122695607D01*
X87611857Y-121770321D01*
X88700428Y-122913321D02*
X88156142Y-122913321D01*
X88156142Y-121770321D01*
X90605428Y-122913321D02*
X90224428Y-122369035D01*
X89952285Y-122913321D02*
X89952285Y-121770321D01*
X90387714Y-121770321D01*
X90496571Y-121824750D01*
X90551000Y-121879178D01*
X90605428Y-121988035D01*
X90605428Y-122151321D01*
X90551000Y-122260178D01*
X90496571Y-122314607D01*
X90387714Y-122369035D01*
X89952285Y-122369035D01*
X91040857Y-122586750D02*
X91585142Y-122586750D01*
X90932000Y-122913321D02*
X91313000Y-121770321D01*
X91694000Y-122913321D01*
X92020571Y-122858892D02*
X92183857Y-122913321D01*
X92456000Y-122913321D01*
X92564857Y-122858892D01*
X92619285Y-122804464D01*
X92673714Y-122695607D01*
X92673714Y-122586750D01*
X92619285Y-122477892D01*
X92564857Y-122423464D01*
X92456000Y-122369035D01*
X92238285Y-122314607D01*
X92129428Y-122260178D01*
X92075000Y-122205750D01*
X92020571Y-122096892D01*
X92020571Y-121988035D01*
X92075000Y-121879178D01*
X92129428Y-121824750D01*
X92238285Y-121770321D01*
X92510428Y-121770321D01*
X92673714Y-121824750D01*
X93163571Y-122913321D02*
X93163571Y-121770321D01*
X93599000Y-121770321D01*
X93707857Y-121824750D01*
X93762285Y-121879178D01*
X93816714Y-121988035D01*
X93816714Y-122151321D01*
X93762285Y-122260178D01*
X93707857Y-122314607D01*
X93599000Y-122369035D01*
X93163571Y-122369035D01*
X94252142Y-122586750D02*
X94796428Y-122586750D01*
X94143285Y-122913321D02*
X94524285Y-121770321D01*
X94905285Y-122913321D01*
X87394142Y-125266450D02*
X87339714Y-125212021D01*
X87230857Y-125048735D01*
X87176428Y-124939878D01*
X87122000Y-124776592D01*
X87067571Y-124504450D01*
X87067571Y-124286735D01*
X87122000Y-124014592D01*
X87176428Y-123851307D01*
X87230857Y-123742450D01*
X87339714Y-123579164D01*
X87394142Y-123524735D01*
X87829571Y-124831021D02*
X87829571Y-123688021D01*
X88265000Y-123688021D01*
X88373857Y-123742450D01*
X88428285Y-123796878D01*
X88482714Y-123905735D01*
X88482714Y-124069021D01*
X88428285Y-124177878D01*
X88373857Y-124232307D01*
X88265000Y-124286735D01*
X87829571Y-124286735D01*
X89625714Y-124831021D02*
X89244714Y-124286735D01*
X88972571Y-124831021D02*
X88972571Y-123688021D01*
X89408000Y-123688021D01*
X89516857Y-123742450D01*
X89571285Y-123796878D01*
X89625714Y-123905735D01*
X89625714Y-124069021D01*
X89571285Y-124177878D01*
X89516857Y-124232307D01*
X89408000Y-124286735D01*
X88972571Y-124286735D01*
X90006714Y-123688021D02*
X90768714Y-123688021D01*
X90278857Y-124831021D01*
X91095285Y-123688021D02*
X91857285Y-123688021D01*
X91367428Y-124831021D01*
X92183857Y-125266450D02*
X92238285Y-125212021D01*
X92347142Y-125048735D01*
X92401571Y-124939878D01*
X92456000Y-124776592D01*
X92510428Y-124504450D01*
X92510428Y-124286735D01*
X92456000Y-124014592D01*
X92401571Y-123851307D01*
X92347142Y-123742450D01*
X92238285Y-123579164D01*
X92183857Y-123524735D01*
X35608380Y-94687571D02*
X37059809Y-94687571D01*
X36188952Y-93816714D02*
X35608380Y-96429285D01*
X36866285Y-95558428D02*
X35414857Y-95558428D01*
X36285714Y-96429285D02*
X36866285Y-93816714D01*
X37640380Y-94687571D02*
X39091809Y-94687571D01*
X38220952Y-93816714D02*
X37640380Y-96429285D01*
X38898285Y-95558428D02*
X37446857Y-95558428D01*
X38317714Y-96429285D02*
X38898285Y-93816714D01*
X39672380Y-94687571D02*
X41123809Y-94687571D01*
X40252952Y-93816714D02*
X39672380Y-96429285D01*
X40930285Y-95558428D02*
X39478857Y-95558428D01*
X40349714Y-96429285D02*
X40930285Y-93816714D01*
X43059047Y-94010238D02*
X44220190Y-94010238D01*
X43639619Y-96042238D02*
X43639619Y-94010238D01*
X45284571Y-94010238D02*
X45671619Y-94010238D01*
X45865142Y-94107000D01*
X46058666Y-94300523D01*
X46155428Y-94687571D01*
X46155428Y-95364904D01*
X46058666Y-95751952D01*
X45865142Y-95945476D01*
X45671619Y-96042238D01*
X45284571Y-96042238D01*
X45091047Y-95945476D01*
X44897523Y-95751952D01*
X44800761Y-95364904D01*
X44800761Y-94687571D01*
X44897523Y-94300523D01*
X45091047Y-94107000D01*
X45284571Y-94010238D01*
X47026285Y-96042238D02*
X47026285Y-94010238D01*
X47800380Y-94010238D01*
X47993904Y-94107000D01*
X48090666Y-94203761D01*
X48187428Y-94397285D01*
X48187428Y-94687571D01*
X48090666Y-94881095D01*
X47993904Y-94977857D01*
X47800380Y-95074619D01*
X47026285Y-95074619D01*
X50509714Y-94687571D02*
X51961142Y-94687571D01*
X51090285Y-93816714D02*
X50509714Y-96429285D01*
X51767619Y-95558428D02*
X50316190Y-95558428D01*
X51187047Y-96429285D02*
X51767619Y-93816714D01*
X52541714Y-94687571D02*
X53993142Y-94687571D01*
X53122285Y-93816714D02*
X52541714Y-96429285D01*
X53799619Y-95558428D02*
X52348190Y-95558428D01*
X53219047Y-96429285D02*
X53799619Y-93816714D01*
X54573714Y-94687571D02*
X56025142Y-94687571D01*
X55154285Y-93816714D02*
X54573714Y-96429285D01*
X55831619Y-95558428D02*
X54380190Y-95558428D01*
X55251047Y-96429285D02*
X55831619Y-93816714D01*
D13*
G04 #@! TO.C,U3*
X66873000Y-106831000D02*
X86273000Y-106831000D01*
D14*
X85273000Y-94591000D02*
X66873000Y-94591000D01*
D12*
G04 #@! TO.C,U2*
X67297000Y-111002000D02*
X65772000Y-111002000D01*
X81547000Y-110477000D02*
X80947000Y-110477000D01*
X81547000Y-124727000D02*
X80947000Y-124727000D01*
X67297000Y-124727000D02*
X67897000Y-124727000D01*
X67297000Y-110477000D02*
X67897000Y-110477000D01*
X67297000Y-124727000D02*
X67297000Y-124127000D01*
X81547000Y-124727000D02*
X81547000Y-124127000D01*
X81547000Y-110477000D02*
X81547000Y-111077000D01*
X67297000Y-110477000D02*
X67297000Y-111002000D01*
D14*
G04 #@! TO.C,X1*
X96980000Y-112930000D02*
G75*
G03X96230000Y-113680000I0J-750000D01*
G01*
X117130000Y-113680000D02*
G75*
G03X116380000Y-112930000I-750000J0D01*
G01*
X116380000Y-125830000D02*
G75*
G03X117130000Y-125080000I0J750000D01*
G01*
X96230000Y-125830000D02*
X116380000Y-125830000D01*
X117130000Y-125080000D02*
X117130000Y-113680000D01*
X116380000Y-112930000D02*
X96980000Y-112930000D01*
X96230000Y-113680000D02*
X96230000Y-125830000D01*
D12*
G04 #@! TO.C,U4*
X109061000Y-105921000D02*
X110536000Y-105921000D01*
X98711000Y-106521000D02*
X99381000Y-106521000D01*
X98711000Y-96171000D02*
X99381000Y-96171000D01*
X109061000Y-96171000D02*
X108391000Y-96171000D01*
X109061000Y-106521000D02*
X108391000Y-106521000D01*
X109061000Y-96171000D02*
X109061000Y-96841000D01*
X98711000Y-96171000D02*
X98711000Y-96841000D01*
X98711000Y-106521000D02*
X98711000Y-105851000D01*
X109061000Y-106521000D02*
X109061000Y-105921000D01*
G04 #@! TO.C,U1*
X53340000Y-98679000D02*
X53086000Y-98933000D01*
X53340000Y-99441000D02*
X53340000Y-98679000D01*
X53594000Y-98933000D02*
X53340000Y-98679000D01*
X57277000Y-118364000D02*
X57531000Y-118110000D01*
X57531000Y-118110000D02*
X57277000Y-117856000D01*
X56769000Y-118110000D02*
X57531000Y-118110000D01*
X54483000Y-99568000D02*
X54102000Y-99568000D01*
X55118000Y-98552000D02*
X54102000Y-99568000D01*
X54102000Y-99568000D02*
X54102000Y-99187000D01*
X57023000Y-118872000D02*
X56642000Y-118872000D01*
X56642000Y-118872000D02*
X56642000Y-119253000D01*
X57658000Y-119888000D02*
X56642000Y-118872000D01*
X37338000Y-121920000D02*
X37338000Y-121539000D01*
X37338000Y-121539000D02*
X36957000Y-121539000D01*
X36322000Y-122555000D02*
X37338000Y-121539000D01*
X34163000Y-102616000D02*
X33909000Y-102870000D01*
X33909000Y-102870000D02*
X34163000Y-103124000D01*
X34671000Y-102870000D02*
X33909000Y-102870000D01*
X34290000Y-102108000D02*
X34671000Y-102108000D01*
X34671000Y-102108000D02*
X34671000Y-101727000D01*
X33782000Y-101219000D02*
X34671000Y-102108000D01*
X43434000Y-98933000D02*
X43180000Y-98679000D01*
X43180000Y-98679000D02*
X42926000Y-98933000D01*
X43180000Y-99441000D02*
X43180000Y-98679000D01*
X44323000Y-99695000D02*
X43942000Y-99695000D01*
X43942000Y-99695000D02*
X43942000Y-99314000D01*
X44831000Y-98806000D02*
X43942000Y-99695000D01*
X38354000Y-122047000D02*
X38100000Y-122301000D01*
X38100000Y-122301000D02*
X37846000Y-122047000D01*
X38100000Y-121539000D02*
X38100000Y-122174000D01*
X33935810Y-100330000D02*
G75*
G03X33935810Y-100330000I-915810J0D01*
G01*
X33935810Y-113030000D02*
G75*
G03X33935810Y-113030000I-915810J0D01*
G01*
X41555810Y-120650000D02*
G75*
G03X41555810Y-120650000I-915810J0D01*
G01*
X54255810Y-120650000D02*
G75*
G03X54255810Y-120650000I-915810J0D01*
G01*
X59335810Y-113030000D02*
G75*
G03X59335810Y-113030000I-915810J0D01*
G01*
X59335810Y-100330000D02*
G75*
G03X59335810Y-100330000I-915810J0D01*
G01*
D14*
G04 #@! TO.C,J1*
X115510000Y-94936000D02*
X116840000Y-94936000D01*
X115510000Y-96266000D02*
X115510000Y-94936000D01*
X115510000Y-97536000D02*
X118170000Y-97536000D01*
X118170000Y-97536000D02*
X118170000Y-110296000D01*
X115510000Y-97536000D02*
X115510000Y-110296000D01*
X115510000Y-110296000D02*
X118170000Y-110296000D01*
G04 #@! TO.C,C6*
X41536000Y-108206000D02*
X39236000Y-108206000D01*
X39236000Y-108206000D02*
X39236000Y-112506000D01*
X41536000Y-108206000D02*
X41536000Y-112506000D01*
G04 #@! TO.C,U5*
X49130000Y-106390000D02*
X49130000Y-112400000D01*
X42310000Y-108640000D02*
X42310000Y-112400000D01*
X49130000Y-112400000D02*
X47870000Y-112400000D01*
X42310000Y-112400000D02*
X43570000Y-112400000D01*
G04 #@! TO.C,C7*
X49904000Y-114806000D02*
X52204000Y-114806000D01*
X52204000Y-114806000D02*
X52204000Y-110506000D01*
X49904000Y-114806000D02*
X49904000Y-110506000D01*
G04 #@! TO.C,C1*
X106180000Y-120230000D02*
X107180000Y-120230000D01*
X107180000Y-118530000D02*
X106180000Y-118530000D01*
G04 #@! TO.C,C2*
X63127000Y-115785000D02*
X64127000Y-115785000D01*
X64127000Y-114085000D02*
X63127000Y-114085000D01*
G04 #@! TO.C,C8*
X112864000Y-96766000D02*
X112864000Y-95766000D01*
X111164000Y-95766000D02*
X111164000Y-96766000D01*
G04 #@! TO.C,C9*
X94146000Y-99322000D02*
X94146000Y-100322000D01*
X95846000Y-100322000D02*
X95846000Y-99322000D01*
G04 #@! TO.C,R1*
X62900000Y-111388000D02*
X64100000Y-111388000D01*
X64100000Y-113148000D02*
X62900000Y-113148000D01*
G04 #@! TO.C,R3*
X62900000Y-107324000D02*
X64100000Y-107324000D01*
X64100000Y-109084000D02*
X62900000Y-109084000D01*
G04 #@! TO.C,R4*
X64100000Y-120641000D02*
X62900000Y-120641000D01*
X62900000Y-118881000D02*
X64100000Y-118881000D01*
G04 #@! TO.C,R5*
X62900000Y-116315600D02*
X64100000Y-116315600D01*
X64100000Y-118075600D02*
X62900000Y-118075600D01*
G04 #@! TO.C,R6*
X111134000Y-100483000D02*
X111134000Y-99283000D01*
X112894000Y-99283000D02*
X112894000Y-100483000D01*
G04 #@! TO.C,R7*
X114799000Y-99283000D02*
X114799000Y-100483000D01*
X113039000Y-100483000D02*
X113039000Y-99283000D01*
G04 #@! TO.C,R8*
X37220000Y-105060000D02*
X37220000Y-103860000D01*
X38980000Y-103860000D02*
X38980000Y-105060000D01*
G04 #@! TO.C,R9*
X62900000Y-109356000D02*
X64100000Y-109356000D01*
X64100000Y-111116000D02*
X62900000Y-111116000D01*
G04 #@! TO.C,C10*
X101100000Y-110578000D02*
X102100000Y-110578000D01*
X102100000Y-108878000D02*
X101100000Y-108878000D01*
G04 #@! TO.C,J3*
X119828000Y-94936000D02*
X121158000Y-94936000D01*
X119828000Y-96266000D02*
X119828000Y-94936000D01*
X119828000Y-97536000D02*
X122488000Y-97536000D01*
X122488000Y-97536000D02*
X122488000Y-102676000D01*
X119828000Y-97536000D02*
X119828000Y-102676000D01*
X119828000Y-102676000D02*
X122488000Y-102676000D01*
G04 #@! TO.C,J2*
X119828000Y-117796000D02*
X121158000Y-117796000D01*
X119828000Y-119126000D02*
X119828000Y-117796000D01*
X119828000Y-120396000D02*
X122488000Y-120396000D01*
X122488000Y-120396000D02*
X122488000Y-125536000D01*
X119828000Y-120396000D02*
X119828000Y-125536000D01*
X119828000Y-125536000D02*
X122488000Y-125536000D01*
G04 #@! TO.C,D1*
X121474000Y-116735000D02*
X122874000Y-116735000D01*
X122874000Y-116735000D02*
X122874000Y-113935000D01*
X121474000Y-116735000D02*
X121474000Y-113935000D01*
G04 #@! TO.C,D2*
X119442000Y-116735000D02*
X119442000Y-113935000D01*
X120842000Y-116735000D02*
X120842000Y-113935000D01*
X119442000Y-116735000D02*
X120842000Y-116735000D01*
G04 #@! TO.C,R10*
X121294000Y-111725000D02*
X121294000Y-110525000D01*
X123054000Y-110525000D02*
X123054000Y-111725000D01*
G04 #@! TO.C,R11*
X121022000Y-110525000D02*
X121022000Y-111725000D01*
X119262000Y-111725000D02*
X119262000Y-110525000D01*
D15*
G04 #@! TO.C,LOGO1*
G36*
X90344814Y-115959931D02*
X90428635Y-116404555D01*
X90737920Y-116532053D01*
X91047206Y-116659551D01*
X91418246Y-116407246D01*
X91522157Y-116336996D01*
X91616087Y-116274272D01*
X91695652Y-116221938D01*
X91756470Y-116182857D01*
X91794157Y-116159893D01*
X91804421Y-116154942D01*
X91822910Y-116167676D01*
X91862420Y-116202882D01*
X91918522Y-116256062D01*
X91986787Y-116322718D01*
X92062786Y-116398354D01*
X92142092Y-116478472D01*
X92220275Y-116558574D01*
X92292907Y-116634164D01*
X92355559Y-116700745D01*
X92403803Y-116753818D01*
X92433210Y-116788887D01*
X92440241Y-116800623D01*
X92430123Y-116822260D01*
X92401759Y-116869662D01*
X92358129Y-116938193D01*
X92302218Y-117023215D01*
X92237006Y-117120093D01*
X92199219Y-117175350D01*
X92130343Y-117276248D01*
X92069140Y-117367299D01*
X92018578Y-117443970D01*
X91981628Y-117501728D01*
X91961258Y-117536043D01*
X91958197Y-117543254D01*
X91965136Y-117563748D01*
X91984051Y-117611513D01*
X92012087Y-117679832D01*
X92046391Y-117761989D01*
X92084109Y-117851270D01*
X92122387Y-117940958D01*
X92158370Y-118024338D01*
X92189206Y-118094694D01*
X92212039Y-118145310D01*
X92224017Y-118169471D01*
X92224724Y-118170422D01*
X92243531Y-118175036D01*
X92293618Y-118185328D01*
X92369793Y-118200287D01*
X92466865Y-118218901D01*
X92579643Y-118240159D01*
X92645442Y-118252418D01*
X92765950Y-118275362D01*
X92874797Y-118297195D01*
X92966476Y-118316722D01*
X93035481Y-118332748D01*
X93076304Y-118344079D01*
X93084511Y-118347674D01*
X93092548Y-118372006D01*
X93099033Y-118426959D01*
X93103970Y-118506108D01*
X93107364Y-118603026D01*
X93109218Y-118711287D01*
X93109538Y-118824465D01*
X93108327Y-118936135D01*
X93105590Y-119039868D01*
X93101331Y-119129241D01*
X93095555Y-119197826D01*
X93088267Y-119239197D01*
X93083895Y-119247810D01*
X93057764Y-119258133D01*
X93002393Y-119272892D01*
X92925107Y-119290352D01*
X92833230Y-119308780D01*
X92801158Y-119314741D01*
X92646524Y-119343066D01*
X92524375Y-119365876D01*
X92430673Y-119384080D01*
X92361384Y-119398583D01*
X92312471Y-119410292D01*
X92279897Y-119420115D01*
X92259628Y-119428956D01*
X92247626Y-119437724D01*
X92245947Y-119439457D01*
X92229184Y-119467371D01*
X92203614Y-119521695D01*
X92171788Y-119595777D01*
X92136260Y-119682965D01*
X92099583Y-119776608D01*
X92064311Y-119870052D01*
X92032996Y-119956647D01*
X92008193Y-120029740D01*
X91992454Y-120082678D01*
X91988332Y-120108811D01*
X91988676Y-120109726D01*
X92002641Y-120131086D01*
X92034322Y-120178084D01*
X92080391Y-120245827D01*
X92137518Y-120329423D01*
X92202373Y-120423982D01*
X92220843Y-120450854D01*
X92286699Y-120548275D01*
X92344650Y-120637163D01*
X92391538Y-120712412D01*
X92424207Y-120768920D01*
X92439500Y-120801581D01*
X92440241Y-120805593D01*
X92427392Y-120826684D01*
X92391888Y-120868464D01*
X92338293Y-120926445D01*
X92271171Y-120996135D01*
X92195087Y-121073045D01*
X92114604Y-121152683D01*
X92034287Y-121230561D01*
X91958699Y-121302186D01*
X91892405Y-121363070D01*
X91839969Y-121408721D01*
X91805955Y-121434650D01*
X91796545Y-121438883D01*
X91774643Y-121428912D01*
X91729800Y-121402020D01*
X91669321Y-121362736D01*
X91622789Y-121331117D01*
X91538475Y-121273098D01*
X91438626Y-121204784D01*
X91338473Y-121136579D01*
X91284627Y-121100075D01*
X91102371Y-120976800D01*
X90949381Y-121059520D01*
X90879682Y-121095759D01*
X90820414Y-121123926D01*
X90780311Y-121139991D01*
X90770103Y-121142226D01*
X90757829Y-121125722D01*
X90733613Y-121079082D01*
X90699263Y-121006609D01*
X90656588Y-120912606D01*
X90607394Y-120801374D01*
X90553490Y-120677215D01*
X90496684Y-120544432D01*
X90438782Y-120407327D01*
X90381593Y-120270202D01*
X90326924Y-120137358D01*
X90276584Y-120013098D01*
X90232380Y-119901725D01*
X90196119Y-119807539D01*
X90169609Y-119734844D01*
X90154658Y-119687941D01*
X90152254Y-119671833D01*
X90171311Y-119651286D01*
X90213036Y-119617933D01*
X90268706Y-119578702D01*
X90273378Y-119575599D01*
X90417264Y-119460423D01*
X90533283Y-119326053D01*
X90620430Y-119176784D01*
X90677699Y-119016913D01*
X90704086Y-118850737D01*
X90698585Y-118682552D01*
X90660190Y-118516655D01*
X90587895Y-118357342D01*
X90566626Y-118322487D01*
X90455996Y-118181737D01*
X90325302Y-118068714D01*
X90179064Y-117984003D01*
X90021808Y-117928194D01*
X89858057Y-117901874D01*
X89692333Y-117905630D01*
X89529162Y-117940050D01*
X89373065Y-118005723D01*
X89228567Y-118103235D01*
X89183869Y-118142813D01*
X89070112Y-118266703D01*
X88987218Y-118397124D01*
X88930356Y-118543315D01*
X88898687Y-118688088D01*
X88890869Y-118850860D01*
X88916938Y-119014440D01*
X88974245Y-119173298D01*
X89060144Y-119321906D01*
X89171986Y-119454735D01*
X89307123Y-119566256D01*
X89324883Y-119578011D01*
X89381150Y-119616508D01*
X89423923Y-119649863D01*
X89444372Y-119671160D01*
X89444669Y-119671833D01*
X89440279Y-119694871D01*
X89422876Y-119747157D01*
X89394268Y-119824390D01*
X89356265Y-119922268D01*
X89310674Y-120036491D01*
X89259303Y-120162758D01*
X89203962Y-120296767D01*
X89146458Y-120434218D01*
X89088601Y-120570808D01*
X89032198Y-120702237D01*
X88979058Y-120824205D01*
X88930990Y-120932409D01*
X88889801Y-121022549D01*
X88857301Y-121090323D01*
X88835297Y-121131430D01*
X88826436Y-121142226D01*
X88799360Y-121133819D01*
X88748697Y-121111272D01*
X88683183Y-121078613D01*
X88647159Y-121059520D01*
X88494168Y-120976800D01*
X88311912Y-121100075D01*
X88218875Y-121163228D01*
X88117015Y-121232727D01*
X88021562Y-121298165D01*
X87973750Y-121331117D01*
X87906505Y-121376273D01*
X87849564Y-121412057D01*
X87810354Y-121433938D01*
X87797619Y-121438563D01*
X87779083Y-121426085D01*
X87738059Y-121391252D01*
X87678525Y-121337678D01*
X87604458Y-121268983D01*
X87519835Y-121188781D01*
X87466315Y-121137286D01*
X87372681Y-121045286D01*
X87291759Y-120962999D01*
X87226823Y-120893945D01*
X87181142Y-120841644D01*
X87157989Y-120809616D01*
X87155768Y-120803116D01*
X87166076Y-120778394D01*
X87194561Y-120728405D01*
X87238063Y-120658212D01*
X87293423Y-120572875D01*
X87357480Y-120477456D01*
X87375697Y-120450854D01*
X87442073Y-120354167D01*
X87501622Y-120267117D01*
X87551016Y-120194595D01*
X87586925Y-120141493D01*
X87606019Y-120112703D01*
X87607864Y-120109726D01*
X87605105Y-120086782D01*
X87590462Y-120036336D01*
X87566487Y-119965041D01*
X87535734Y-119879547D01*
X87500756Y-119786507D01*
X87464107Y-119692574D01*
X87428339Y-119604399D01*
X87396006Y-119528634D01*
X87369662Y-119471931D01*
X87351858Y-119440943D01*
X87350593Y-119439457D01*
X87339706Y-119430601D01*
X87321318Y-119421843D01*
X87291394Y-119412277D01*
X87245897Y-119400996D01*
X87180791Y-119387093D01*
X87092039Y-119369663D01*
X86975607Y-119347798D01*
X86827458Y-119320591D01*
X86795382Y-119314741D01*
X86700314Y-119296374D01*
X86617435Y-119278405D01*
X86554070Y-119262569D01*
X86517542Y-119250600D01*
X86512644Y-119247810D01*
X86504573Y-119223072D01*
X86498013Y-119167790D01*
X86492967Y-119088389D01*
X86489441Y-118991296D01*
X86487439Y-118882938D01*
X86486964Y-118769740D01*
X86488023Y-118658128D01*
X86490618Y-118554529D01*
X86494754Y-118465368D01*
X86500437Y-118397072D01*
X86507669Y-118356066D01*
X86512029Y-118347674D01*
X86536302Y-118339208D01*
X86591574Y-118325435D01*
X86672338Y-118307550D01*
X86773088Y-118286748D01*
X86888317Y-118264223D01*
X86951098Y-118252418D01*
X87070213Y-118230151D01*
X87176435Y-118209979D01*
X87264573Y-118192915D01*
X87329434Y-118179969D01*
X87365826Y-118172155D01*
X87371816Y-118170422D01*
X87381939Y-118150890D01*
X87403338Y-118103843D01*
X87433161Y-118036003D01*
X87468555Y-117954091D01*
X87506668Y-117864828D01*
X87544647Y-117774935D01*
X87579640Y-117691135D01*
X87608794Y-117620147D01*
X87629257Y-117568694D01*
X87638177Y-117543497D01*
X87638343Y-117542396D01*
X87628231Y-117522519D01*
X87599883Y-117476777D01*
X87556277Y-117409717D01*
X87500394Y-117325884D01*
X87435213Y-117229826D01*
X87397321Y-117174650D01*
X87328275Y-117073481D01*
X87266950Y-116981630D01*
X87216337Y-116903744D01*
X87179429Y-116844469D01*
X87159218Y-116808451D01*
X87156299Y-116800377D01*
X87168847Y-116781584D01*
X87203537Y-116741457D01*
X87255937Y-116684493D01*
X87321616Y-116615185D01*
X87396144Y-116538031D01*
X87475087Y-116457525D01*
X87554017Y-116378163D01*
X87628500Y-116304440D01*
X87694106Y-116240852D01*
X87746404Y-116191894D01*
X87780961Y-116162061D01*
X87792522Y-116154942D01*
X87811346Y-116164953D01*
X87856369Y-116193078D01*
X87923213Y-116236454D01*
X88007501Y-116292218D01*
X88104856Y-116357506D01*
X88178293Y-116407246D01*
X88549333Y-116659551D01*
X89167905Y-116404555D01*
X89251725Y-115959931D01*
X89335546Y-115515307D01*
X90260994Y-115515307D01*
X90344814Y-115959931D01*
X90344814Y-115959931D01*
G37*
X90344814Y-115959931D02*
X90428635Y-116404555D01*
X90737920Y-116532053D01*
X91047206Y-116659551D01*
X91418246Y-116407246D01*
X91522157Y-116336996D01*
X91616087Y-116274272D01*
X91695652Y-116221938D01*
X91756470Y-116182857D01*
X91794157Y-116159893D01*
X91804421Y-116154942D01*
X91822910Y-116167676D01*
X91862420Y-116202882D01*
X91918522Y-116256062D01*
X91986787Y-116322718D01*
X92062786Y-116398354D01*
X92142092Y-116478472D01*
X92220275Y-116558574D01*
X92292907Y-116634164D01*
X92355559Y-116700745D01*
X92403803Y-116753818D01*
X92433210Y-116788887D01*
X92440241Y-116800623D01*
X92430123Y-116822260D01*
X92401759Y-116869662D01*
X92358129Y-116938193D01*
X92302218Y-117023215D01*
X92237006Y-117120093D01*
X92199219Y-117175350D01*
X92130343Y-117276248D01*
X92069140Y-117367299D01*
X92018578Y-117443970D01*
X91981628Y-117501728D01*
X91961258Y-117536043D01*
X91958197Y-117543254D01*
X91965136Y-117563748D01*
X91984051Y-117611513D01*
X92012087Y-117679832D01*
X92046391Y-117761989D01*
X92084109Y-117851270D01*
X92122387Y-117940958D01*
X92158370Y-118024338D01*
X92189206Y-118094694D01*
X92212039Y-118145310D01*
X92224017Y-118169471D01*
X92224724Y-118170422D01*
X92243531Y-118175036D01*
X92293618Y-118185328D01*
X92369793Y-118200287D01*
X92466865Y-118218901D01*
X92579643Y-118240159D01*
X92645442Y-118252418D01*
X92765950Y-118275362D01*
X92874797Y-118297195D01*
X92966476Y-118316722D01*
X93035481Y-118332748D01*
X93076304Y-118344079D01*
X93084511Y-118347674D01*
X93092548Y-118372006D01*
X93099033Y-118426959D01*
X93103970Y-118506108D01*
X93107364Y-118603026D01*
X93109218Y-118711287D01*
X93109538Y-118824465D01*
X93108327Y-118936135D01*
X93105590Y-119039868D01*
X93101331Y-119129241D01*
X93095555Y-119197826D01*
X93088267Y-119239197D01*
X93083895Y-119247810D01*
X93057764Y-119258133D01*
X93002393Y-119272892D01*
X92925107Y-119290352D01*
X92833230Y-119308780D01*
X92801158Y-119314741D01*
X92646524Y-119343066D01*
X92524375Y-119365876D01*
X92430673Y-119384080D01*
X92361384Y-119398583D01*
X92312471Y-119410292D01*
X92279897Y-119420115D01*
X92259628Y-119428956D01*
X92247626Y-119437724D01*
X92245947Y-119439457D01*
X92229184Y-119467371D01*
X92203614Y-119521695D01*
X92171788Y-119595777D01*
X92136260Y-119682965D01*
X92099583Y-119776608D01*
X92064311Y-119870052D01*
X92032996Y-119956647D01*
X92008193Y-120029740D01*
X91992454Y-120082678D01*
X91988332Y-120108811D01*
X91988676Y-120109726D01*
X92002641Y-120131086D01*
X92034322Y-120178084D01*
X92080391Y-120245827D01*
X92137518Y-120329423D01*
X92202373Y-120423982D01*
X92220843Y-120450854D01*
X92286699Y-120548275D01*
X92344650Y-120637163D01*
X92391538Y-120712412D01*
X92424207Y-120768920D01*
X92439500Y-120801581D01*
X92440241Y-120805593D01*
X92427392Y-120826684D01*
X92391888Y-120868464D01*
X92338293Y-120926445D01*
X92271171Y-120996135D01*
X92195087Y-121073045D01*
X92114604Y-121152683D01*
X92034287Y-121230561D01*
X91958699Y-121302186D01*
X91892405Y-121363070D01*
X91839969Y-121408721D01*
X91805955Y-121434650D01*
X91796545Y-121438883D01*
X91774643Y-121428912D01*
X91729800Y-121402020D01*
X91669321Y-121362736D01*
X91622789Y-121331117D01*
X91538475Y-121273098D01*
X91438626Y-121204784D01*
X91338473Y-121136579D01*
X91284627Y-121100075D01*
X91102371Y-120976800D01*
X90949381Y-121059520D01*
X90879682Y-121095759D01*
X90820414Y-121123926D01*
X90780311Y-121139991D01*
X90770103Y-121142226D01*
X90757829Y-121125722D01*
X90733613Y-121079082D01*
X90699263Y-121006609D01*
X90656588Y-120912606D01*
X90607394Y-120801374D01*
X90553490Y-120677215D01*
X90496684Y-120544432D01*
X90438782Y-120407327D01*
X90381593Y-120270202D01*
X90326924Y-120137358D01*
X90276584Y-120013098D01*
X90232380Y-119901725D01*
X90196119Y-119807539D01*
X90169609Y-119734844D01*
X90154658Y-119687941D01*
X90152254Y-119671833D01*
X90171311Y-119651286D01*
X90213036Y-119617933D01*
X90268706Y-119578702D01*
X90273378Y-119575599D01*
X90417264Y-119460423D01*
X90533283Y-119326053D01*
X90620430Y-119176784D01*
X90677699Y-119016913D01*
X90704086Y-118850737D01*
X90698585Y-118682552D01*
X90660190Y-118516655D01*
X90587895Y-118357342D01*
X90566626Y-118322487D01*
X90455996Y-118181737D01*
X90325302Y-118068714D01*
X90179064Y-117984003D01*
X90021808Y-117928194D01*
X89858057Y-117901874D01*
X89692333Y-117905630D01*
X89529162Y-117940050D01*
X89373065Y-118005723D01*
X89228567Y-118103235D01*
X89183869Y-118142813D01*
X89070112Y-118266703D01*
X88987218Y-118397124D01*
X88930356Y-118543315D01*
X88898687Y-118688088D01*
X88890869Y-118850860D01*
X88916938Y-119014440D01*
X88974245Y-119173298D01*
X89060144Y-119321906D01*
X89171986Y-119454735D01*
X89307123Y-119566256D01*
X89324883Y-119578011D01*
X89381150Y-119616508D01*
X89423923Y-119649863D01*
X89444372Y-119671160D01*
X89444669Y-119671833D01*
X89440279Y-119694871D01*
X89422876Y-119747157D01*
X89394268Y-119824390D01*
X89356265Y-119922268D01*
X89310674Y-120036491D01*
X89259303Y-120162758D01*
X89203962Y-120296767D01*
X89146458Y-120434218D01*
X89088601Y-120570808D01*
X89032198Y-120702237D01*
X88979058Y-120824205D01*
X88930990Y-120932409D01*
X88889801Y-121022549D01*
X88857301Y-121090323D01*
X88835297Y-121131430D01*
X88826436Y-121142226D01*
X88799360Y-121133819D01*
X88748697Y-121111272D01*
X88683183Y-121078613D01*
X88647159Y-121059520D01*
X88494168Y-120976800D01*
X88311912Y-121100075D01*
X88218875Y-121163228D01*
X88117015Y-121232727D01*
X88021562Y-121298165D01*
X87973750Y-121331117D01*
X87906505Y-121376273D01*
X87849564Y-121412057D01*
X87810354Y-121433938D01*
X87797619Y-121438563D01*
X87779083Y-121426085D01*
X87738059Y-121391252D01*
X87678525Y-121337678D01*
X87604458Y-121268983D01*
X87519835Y-121188781D01*
X87466315Y-121137286D01*
X87372681Y-121045286D01*
X87291759Y-120962999D01*
X87226823Y-120893945D01*
X87181142Y-120841644D01*
X87157989Y-120809616D01*
X87155768Y-120803116D01*
X87166076Y-120778394D01*
X87194561Y-120728405D01*
X87238063Y-120658212D01*
X87293423Y-120572875D01*
X87357480Y-120477456D01*
X87375697Y-120450854D01*
X87442073Y-120354167D01*
X87501622Y-120267117D01*
X87551016Y-120194595D01*
X87586925Y-120141493D01*
X87606019Y-120112703D01*
X87607864Y-120109726D01*
X87605105Y-120086782D01*
X87590462Y-120036336D01*
X87566487Y-119965041D01*
X87535734Y-119879547D01*
X87500756Y-119786507D01*
X87464107Y-119692574D01*
X87428339Y-119604399D01*
X87396006Y-119528634D01*
X87369662Y-119471931D01*
X87351858Y-119440943D01*
X87350593Y-119439457D01*
X87339706Y-119430601D01*
X87321318Y-119421843D01*
X87291394Y-119412277D01*
X87245897Y-119400996D01*
X87180791Y-119387093D01*
X87092039Y-119369663D01*
X86975607Y-119347798D01*
X86827458Y-119320591D01*
X86795382Y-119314741D01*
X86700314Y-119296374D01*
X86617435Y-119278405D01*
X86554070Y-119262569D01*
X86517542Y-119250600D01*
X86512644Y-119247810D01*
X86504573Y-119223072D01*
X86498013Y-119167790D01*
X86492967Y-119088389D01*
X86489441Y-118991296D01*
X86487439Y-118882938D01*
X86486964Y-118769740D01*
X86488023Y-118658128D01*
X86490618Y-118554529D01*
X86494754Y-118465368D01*
X86500437Y-118397072D01*
X86507669Y-118356066D01*
X86512029Y-118347674D01*
X86536302Y-118339208D01*
X86591574Y-118325435D01*
X86672338Y-118307550D01*
X86773088Y-118286748D01*
X86888317Y-118264223D01*
X86951098Y-118252418D01*
X87070213Y-118230151D01*
X87176435Y-118209979D01*
X87264573Y-118192915D01*
X87329434Y-118179969D01*
X87365826Y-118172155D01*
X87371816Y-118170422D01*
X87381939Y-118150890D01*
X87403338Y-118103843D01*
X87433161Y-118036003D01*
X87468555Y-117954091D01*
X87506668Y-117864828D01*
X87544647Y-117774935D01*
X87579640Y-117691135D01*
X87608794Y-117620147D01*
X87629257Y-117568694D01*
X87638177Y-117543497D01*
X87638343Y-117542396D01*
X87628231Y-117522519D01*
X87599883Y-117476777D01*
X87556277Y-117409717D01*
X87500394Y-117325884D01*
X87435213Y-117229826D01*
X87397321Y-117174650D01*
X87328275Y-117073481D01*
X87266950Y-116981630D01*
X87216337Y-116903744D01*
X87179429Y-116844469D01*
X87159218Y-116808451D01*
X87156299Y-116800377D01*
X87168847Y-116781584D01*
X87203537Y-116741457D01*
X87255937Y-116684493D01*
X87321616Y-116615185D01*
X87396144Y-116538031D01*
X87475087Y-116457525D01*
X87554017Y-116378163D01*
X87628500Y-116304440D01*
X87694106Y-116240852D01*
X87746404Y-116191894D01*
X87780961Y-116162061D01*
X87792522Y-116154942D01*
X87811346Y-116164953D01*
X87856369Y-116193078D01*
X87923213Y-116236454D01*
X88007501Y-116292218D01*
X88104856Y-116357506D01*
X88178293Y-116407246D01*
X88549333Y-116659551D01*
X89167905Y-116404555D01*
X89251725Y-115959931D01*
X89335546Y-115515307D01*
X90260994Y-115515307D01*
X90344814Y-115959931D01*
G04 #@! TO.C,U3*
D11*
X74524809Y-99598238D02*
X74524809Y-101243190D01*
X74621571Y-101436714D01*
X74718333Y-101533476D01*
X74911857Y-101630238D01*
X75298904Y-101630238D01*
X75492428Y-101533476D01*
X75589190Y-101436714D01*
X75685952Y-101243190D01*
X75685952Y-99598238D01*
X76460047Y-99598238D02*
X77717952Y-99598238D01*
X77040619Y-100372333D01*
X77330904Y-100372333D01*
X77524428Y-100469095D01*
X77621190Y-100565857D01*
X77717952Y-100759380D01*
X77717952Y-101243190D01*
X77621190Y-101436714D01*
X77524428Y-101533476D01*
X77330904Y-101630238D01*
X76750333Y-101630238D01*
X76556809Y-101533476D01*
X76460047Y-101436714D01*
G04 #@! TO.C,U2*
X72873809Y-116489238D02*
X72873809Y-118134190D01*
X72970571Y-118327714D01*
X73067333Y-118424476D01*
X73260857Y-118521238D01*
X73647904Y-118521238D01*
X73841428Y-118424476D01*
X73938190Y-118327714D01*
X74034952Y-118134190D01*
X74034952Y-116489238D01*
X74905809Y-116682761D02*
X75002571Y-116586000D01*
X75196095Y-116489238D01*
X75679904Y-116489238D01*
X75873428Y-116586000D01*
X75970190Y-116682761D01*
X76066952Y-116876285D01*
X76066952Y-117069809D01*
X75970190Y-117360095D01*
X74809047Y-118521238D01*
X76066952Y-118521238D01*
D16*
X68026642Y-113096523D02*
X68026642Y-111826523D01*
X68407642Y-112733666D01*
X68788642Y-111826523D01*
X68788642Y-113096523D01*
X69986071Y-112975571D02*
X69931642Y-113036047D01*
X69768357Y-113096523D01*
X69659500Y-113096523D01*
X69496214Y-113036047D01*
X69387357Y-112915095D01*
X69332928Y-112794142D01*
X69278500Y-112552238D01*
X69278500Y-112370809D01*
X69332928Y-112128904D01*
X69387357Y-112007952D01*
X69496214Y-111887000D01*
X69659500Y-111826523D01*
X69768357Y-111826523D01*
X69931642Y-111887000D01*
X69986071Y-111947476D01*
X70965785Y-111826523D02*
X70748071Y-111826523D01*
X70639214Y-111887000D01*
X70584785Y-111947476D01*
X70475928Y-112128904D01*
X70421500Y-112370809D01*
X70421500Y-112854619D01*
X70475928Y-112975571D01*
X70530357Y-113036047D01*
X70639214Y-113096523D01*
X70856928Y-113096523D01*
X70965785Y-113036047D01*
X71020214Y-112975571D01*
X71074642Y-112854619D01*
X71074642Y-112552238D01*
X71020214Y-112431285D01*
X70965785Y-112370809D01*
X70856928Y-112310333D01*
X70639214Y-112310333D01*
X70530357Y-112370809D01*
X70475928Y-112431285D01*
X70421500Y-112552238D01*
X71727785Y-112370809D02*
X71618928Y-112310333D01*
X71564500Y-112249857D01*
X71510071Y-112128904D01*
X71510071Y-112068428D01*
X71564500Y-111947476D01*
X71618928Y-111887000D01*
X71727785Y-111826523D01*
X71945500Y-111826523D01*
X72054357Y-111887000D01*
X72108785Y-111947476D01*
X72163214Y-112068428D01*
X72163214Y-112128904D01*
X72108785Y-112249857D01*
X72054357Y-112310333D01*
X71945500Y-112370809D01*
X71727785Y-112370809D01*
X71618928Y-112431285D01*
X71564500Y-112491761D01*
X71510071Y-112612714D01*
X71510071Y-112854619D01*
X71564500Y-112975571D01*
X71618928Y-113036047D01*
X71727785Y-113096523D01*
X71945500Y-113096523D01*
X72054357Y-113036047D01*
X72108785Y-112975571D01*
X72163214Y-112854619D01*
X72163214Y-112612714D01*
X72108785Y-112491761D01*
X72054357Y-112431285D01*
X71945500Y-112370809D01*
X72598642Y-113036047D02*
X72761928Y-113096523D01*
X73034071Y-113096523D01*
X73142928Y-113036047D01*
X73197357Y-112975571D01*
X73251785Y-112854619D01*
X73251785Y-112733666D01*
X73197357Y-112612714D01*
X73142928Y-112552238D01*
X73034071Y-112491761D01*
X72816357Y-112431285D01*
X72707500Y-112370809D01*
X72653071Y-112310333D01*
X72598642Y-112189380D01*
X72598642Y-112068428D01*
X72653071Y-111947476D01*
X72707500Y-111887000D01*
X72816357Y-111826523D01*
X73088500Y-111826523D01*
X73251785Y-111887000D01*
X73741642Y-112431285D02*
X74122642Y-112431285D01*
X74285928Y-113096523D02*
X73741642Y-113096523D01*
X73741642Y-111826523D01*
X74285928Y-111826523D01*
X75428928Y-112975571D02*
X75374500Y-113036047D01*
X75211214Y-113096523D01*
X75102357Y-113096523D01*
X74939071Y-113036047D01*
X74830214Y-112915095D01*
X74775785Y-112794142D01*
X74721357Y-112552238D01*
X74721357Y-112370809D01*
X74775785Y-112128904D01*
X74830214Y-112007952D01*
X74939071Y-111887000D01*
X75102357Y-111826523D01*
X75211214Y-111826523D01*
X75374500Y-111887000D01*
X75428928Y-111947476D01*
X76136500Y-111826523D02*
X76245357Y-111826523D01*
X76354214Y-111887000D01*
X76408642Y-111947476D01*
X76463071Y-112068428D01*
X76517500Y-112310333D01*
X76517500Y-112612714D01*
X76463071Y-112854619D01*
X76408642Y-112975571D01*
X76354214Y-113036047D01*
X76245357Y-113096523D01*
X76136500Y-113096523D01*
X76027642Y-113036047D01*
X75973214Y-112975571D01*
X75918785Y-112854619D01*
X75864357Y-112612714D01*
X75864357Y-112310333D01*
X75918785Y-112068428D01*
X75973214Y-111947476D01*
X76027642Y-111887000D01*
X76136500Y-111826523D01*
X77225071Y-111826523D02*
X77333928Y-111826523D01*
X77442785Y-111887000D01*
X77497214Y-111947476D01*
X77551642Y-112068428D01*
X77606071Y-112310333D01*
X77606071Y-112612714D01*
X77551642Y-112854619D01*
X77497214Y-112975571D01*
X77442785Y-113036047D01*
X77333928Y-113096523D01*
X77225071Y-113096523D01*
X77116214Y-113036047D01*
X77061785Y-112975571D01*
X77007357Y-112854619D01*
X76952928Y-112612714D01*
X76952928Y-112310333D01*
X77007357Y-112068428D01*
X77061785Y-111947476D01*
X77116214Y-111887000D01*
X77225071Y-111826523D01*
X78313642Y-111826523D02*
X78422500Y-111826523D01*
X78531357Y-111887000D01*
X78585785Y-111947476D01*
X78640214Y-112068428D01*
X78694642Y-112310333D01*
X78694642Y-112612714D01*
X78640214Y-112854619D01*
X78585785Y-112975571D01*
X78531357Y-113036047D01*
X78422500Y-113096523D01*
X78313642Y-113096523D01*
X78204785Y-113036047D01*
X78150357Y-112975571D01*
X78095928Y-112854619D01*
X78041500Y-112612714D01*
X78041500Y-112310333D01*
X78095928Y-112068428D01*
X78150357Y-111947476D01*
X78204785Y-111887000D01*
X78313642Y-111826523D01*
X79565500Y-112431285D02*
X79184500Y-112431285D01*
X79184500Y-113096523D02*
X79184500Y-111826523D01*
X79728785Y-111826523D01*
X80164214Y-113096523D02*
X80164214Y-111826523D01*
X80817357Y-113096523D01*
X80817357Y-111826523D01*
G04 #@! TO.C,X1*
D12*
X100790476Y-122642380D02*
X101457142Y-123642380D01*
X101457142Y-122642380D02*
X100790476Y-123642380D01*
X102361904Y-123642380D02*
X101790476Y-123642380D01*
X102076190Y-123642380D02*
X102076190Y-122642380D01*
X101980952Y-122785238D01*
X101885714Y-122880476D01*
X101790476Y-122928095D01*
G04 #@! TO.C,U4*
D11*
X102337809Y-100233238D02*
X102337809Y-101878190D01*
X102434571Y-102071714D01*
X102531333Y-102168476D01*
X102724857Y-102265238D01*
X103111904Y-102265238D01*
X103305428Y-102168476D01*
X103402190Y-102071714D01*
X103498952Y-101878190D01*
X103498952Y-100233238D01*
X105337428Y-100910571D02*
X105337428Y-102265238D01*
X104853619Y-100136476D02*
X104369809Y-101587904D01*
X105627714Y-101587904D01*
G04 #@! TO.C,U1*
X44171809Y-101757238D02*
X44171809Y-103402190D01*
X44268571Y-103595714D01*
X44365333Y-103692476D01*
X44558857Y-103789238D01*
X44945904Y-103789238D01*
X45139428Y-103692476D01*
X45236190Y-103595714D01*
X45332952Y-103402190D01*
X45332952Y-101757238D01*
X47364952Y-103789238D02*
X46203809Y-103789238D01*
X46784380Y-103789238D02*
X46784380Y-101757238D01*
X46590857Y-102047523D01*
X46397333Y-102241047D01*
X46203809Y-102337809D01*
D12*
X41553333Y-105481380D02*
X41553333Y-104481380D01*
X41886666Y-105195666D01*
X42220000Y-104481380D01*
X42220000Y-105481380D01*
X43267619Y-105386142D02*
X43220000Y-105433761D01*
X43077142Y-105481380D01*
X42981904Y-105481380D01*
X42839047Y-105433761D01*
X42743809Y-105338523D01*
X42696190Y-105243285D01*
X42648571Y-105052809D01*
X42648571Y-104909952D01*
X42696190Y-104719476D01*
X42743809Y-104624238D01*
X42839047Y-104529000D01*
X42981904Y-104481380D01*
X43077142Y-104481380D01*
X43220000Y-104529000D01*
X43267619Y-104576619D01*
X44124761Y-104481380D02*
X43934285Y-104481380D01*
X43839047Y-104529000D01*
X43791428Y-104576619D01*
X43696190Y-104719476D01*
X43648571Y-104909952D01*
X43648571Y-105290904D01*
X43696190Y-105386142D01*
X43743809Y-105433761D01*
X43839047Y-105481380D01*
X44029523Y-105481380D01*
X44124761Y-105433761D01*
X44172380Y-105386142D01*
X44220000Y-105290904D01*
X44220000Y-105052809D01*
X44172380Y-104957571D01*
X44124761Y-104909952D01*
X44029523Y-104862333D01*
X43839047Y-104862333D01*
X43743809Y-104909952D01*
X43696190Y-104957571D01*
X43648571Y-105052809D01*
X44791428Y-104909952D02*
X44696190Y-104862333D01*
X44648571Y-104814714D01*
X44600952Y-104719476D01*
X44600952Y-104671857D01*
X44648571Y-104576619D01*
X44696190Y-104529000D01*
X44791428Y-104481380D01*
X44981904Y-104481380D01*
X45077142Y-104529000D01*
X45124761Y-104576619D01*
X45172380Y-104671857D01*
X45172380Y-104719476D01*
X45124761Y-104814714D01*
X45077142Y-104862333D01*
X44981904Y-104909952D01*
X44791428Y-104909952D01*
X44696190Y-104957571D01*
X44648571Y-105005190D01*
X44600952Y-105100428D01*
X44600952Y-105290904D01*
X44648571Y-105386142D01*
X44696190Y-105433761D01*
X44791428Y-105481380D01*
X44981904Y-105481380D01*
X45077142Y-105433761D01*
X45124761Y-105386142D01*
X45172380Y-105290904D01*
X45172380Y-105100428D01*
X45124761Y-105005190D01*
X45077142Y-104957571D01*
X44981904Y-104909952D01*
X45791428Y-104481380D02*
X45886666Y-104481380D01*
X45981904Y-104529000D01*
X46029523Y-104576619D01*
X46077142Y-104671857D01*
X46124761Y-104862333D01*
X46124761Y-105100428D01*
X46077142Y-105290904D01*
X46029523Y-105386142D01*
X45981904Y-105433761D01*
X45886666Y-105481380D01*
X45791428Y-105481380D01*
X45696190Y-105433761D01*
X45648571Y-105386142D01*
X45600952Y-105290904D01*
X45553333Y-105100428D01*
X45553333Y-104862333D01*
X45600952Y-104671857D01*
X45648571Y-104576619D01*
X45696190Y-104529000D01*
X45791428Y-104481380D01*
X46743809Y-104481380D02*
X46839047Y-104481380D01*
X46934285Y-104529000D01*
X46981904Y-104576619D01*
X47029523Y-104671857D01*
X47077142Y-104862333D01*
X47077142Y-105100428D01*
X47029523Y-105290904D01*
X46981904Y-105386142D01*
X46934285Y-105433761D01*
X46839047Y-105481380D01*
X46743809Y-105481380D01*
X46648571Y-105433761D01*
X46600952Y-105386142D01*
X46553333Y-105290904D01*
X46505714Y-105100428D01*
X46505714Y-104862333D01*
X46553333Y-104671857D01*
X46600952Y-104576619D01*
X46648571Y-104529000D01*
X46743809Y-104481380D01*
X47696190Y-104481380D02*
X47791428Y-104481380D01*
X47886666Y-104529000D01*
X47934285Y-104576619D01*
X47981904Y-104671857D01*
X48029523Y-104862333D01*
X48029523Y-105100428D01*
X47981904Y-105290904D01*
X47934285Y-105386142D01*
X47886666Y-105433761D01*
X47791428Y-105481380D01*
X47696190Y-105481380D01*
X47600952Y-105433761D01*
X47553333Y-105386142D01*
X47505714Y-105290904D01*
X47458095Y-105100428D01*
X47458095Y-104862333D01*
X47505714Y-104671857D01*
X47553333Y-104576619D01*
X47600952Y-104529000D01*
X47696190Y-104481380D01*
X48791428Y-104957571D02*
X48458095Y-104957571D01*
X48458095Y-105481380D02*
X48458095Y-104481380D01*
X48934285Y-104481380D01*
X49315238Y-105481380D02*
X49315238Y-104481380D01*
X49886666Y-105481380D01*
X49886666Y-104481380D01*
G04 #@! TO.C,J1*
X116506666Y-93388380D02*
X116506666Y-94102666D01*
X116459047Y-94245523D01*
X116363809Y-94340761D01*
X116220952Y-94388380D01*
X116125714Y-94388380D01*
X117506666Y-94388380D02*
X116935238Y-94388380D01*
X117220952Y-94388380D02*
X117220952Y-93388380D01*
X117125714Y-93531238D01*
X117030476Y-93626476D01*
X116935238Y-93674095D01*
G04 #@! TO.C,C6*
X37679333Y-111863142D02*
X37631714Y-111910761D01*
X37488857Y-111958380D01*
X37393619Y-111958380D01*
X37250761Y-111910761D01*
X37155523Y-111815523D01*
X37107904Y-111720285D01*
X37060285Y-111529809D01*
X37060285Y-111386952D01*
X37107904Y-111196476D01*
X37155523Y-111101238D01*
X37250761Y-111006000D01*
X37393619Y-110958380D01*
X37488857Y-110958380D01*
X37631714Y-111006000D01*
X37679333Y-111053619D01*
X38536476Y-110958380D02*
X38346000Y-110958380D01*
X38250761Y-111006000D01*
X38203142Y-111053619D01*
X38107904Y-111196476D01*
X38060285Y-111386952D01*
X38060285Y-111767904D01*
X38107904Y-111863142D01*
X38155523Y-111910761D01*
X38250761Y-111958380D01*
X38441238Y-111958380D01*
X38536476Y-111910761D01*
X38584095Y-111863142D01*
X38631714Y-111767904D01*
X38631714Y-111529809D01*
X38584095Y-111434571D01*
X38536476Y-111386952D01*
X38441238Y-111339333D01*
X38250761Y-111339333D01*
X38155523Y-111386952D01*
X38107904Y-111434571D01*
X38060285Y-111529809D01*
G04 #@! TO.C,U5*
D11*
X44171809Y-116489238D02*
X44171809Y-118134190D01*
X44268571Y-118327714D01*
X44365333Y-118424476D01*
X44558857Y-118521238D01*
X44945904Y-118521238D01*
X45139428Y-118424476D01*
X45236190Y-118327714D01*
X45332952Y-118134190D01*
X45332952Y-116489238D01*
X47268190Y-116489238D02*
X46300571Y-116489238D01*
X46203809Y-117456857D01*
X46300571Y-117360095D01*
X46494095Y-117263333D01*
X46977904Y-117263333D01*
X47171428Y-117360095D01*
X47268190Y-117456857D01*
X47364952Y-117650380D01*
X47364952Y-118134190D01*
X47268190Y-118327714D01*
X47171428Y-118424476D01*
X46977904Y-118521238D01*
X46494095Y-118521238D01*
X46300571Y-118424476D01*
X46203809Y-118327714D01*
G04 #@! TO.C,C7*
D12*
X53300333Y-111863142D02*
X53252714Y-111910761D01*
X53109857Y-111958380D01*
X53014619Y-111958380D01*
X52871761Y-111910761D01*
X52776523Y-111815523D01*
X52728904Y-111720285D01*
X52681285Y-111529809D01*
X52681285Y-111386952D01*
X52728904Y-111196476D01*
X52776523Y-111101238D01*
X52871761Y-111006000D01*
X53014619Y-110958380D01*
X53109857Y-110958380D01*
X53252714Y-111006000D01*
X53300333Y-111053619D01*
X53633666Y-110958380D02*
X54300333Y-110958380D01*
X53871761Y-111958380D01*
G04 #@! TO.C,C1*
X106513333Y-118237142D02*
X106465714Y-118284761D01*
X106322857Y-118332380D01*
X106227619Y-118332380D01*
X106084761Y-118284761D01*
X105989523Y-118189523D01*
X105941904Y-118094285D01*
X105894285Y-117903809D01*
X105894285Y-117760952D01*
X105941904Y-117570476D01*
X105989523Y-117475238D01*
X106084761Y-117380000D01*
X106227619Y-117332380D01*
X106322857Y-117332380D01*
X106465714Y-117380000D01*
X106513333Y-117427619D01*
X107465714Y-118332380D02*
X106894285Y-118332380D01*
X107180000Y-118332380D02*
X107180000Y-117332380D01*
X107084761Y-117475238D01*
X106989523Y-117570476D01*
X106894285Y-117618095D01*
G04 #@! TO.C,C2*
X60666333Y-115292142D02*
X60618714Y-115339761D01*
X60475857Y-115387380D01*
X60380619Y-115387380D01*
X60237761Y-115339761D01*
X60142523Y-115244523D01*
X60094904Y-115149285D01*
X60047285Y-114958809D01*
X60047285Y-114815952D01*
X60094904Y-114625476D01*
X60142523Y-114530238D01*
X60237761Y-114435000D01*
X60380619Y-114387380D01*
X60475857Y-114387380D01*
X60618714Y-114435000D01*
X60666333Y-114482619D01*
X61047285Y-114482619D02*
X61094904Y-114435000D01*
X61190142Y-114387380D01*
X61428238Y-114387380D01*
X61523476Y-114435000D01*
X61571095Y-114482619D01*
X61618714Y-114577857D01*
X61618714Y-114673095D01*
X61571095Y-114815952D01*
X60999666Y-115387380D01*
X61618714Y-115387380D01*
G04 #@! TO.C,C8*
X113879333Y-96623142D02*
X113831714Y-96670761D01*
X113688857Y-96718380D01*
X113593619Y-96718380D01*
X113450761Y-96670761D01*
X113355523Y-96575523D01*
X113307904Y-96480285D01*
X113260285Y-96289809D01*
X113260285Y-96146952D01*
X113307904Y-95956476D01*
X113355523Y-95861238D01*
X113450761Y-95766000D01*
X113593619Y-95718380D01*
X113688857Y-95718380D01*
X113831714Y-95766000D01*
X113879333Y-95813619D01*
X114450761Y-96146952D02*
X114355523Y-96099333D01*
X114307904Y-96051714D01*
X114260285Y-95956476D01*
X114260285Y-95908857D01*
X114307904Y-95813619D01*
X114355523Y-95766000D01*
X114450761Y-95718380D01*
X114641238Y-95718380D01*
X114736476Y-95766000D01*
X114784095Y-95813619D01*
X114831714Y-95908857D01*
X114831714Y-95956476D01*
X114784095Y-96051714D01*
X114736476Y-96099333D01*
X114641238Y-96146952D01*
X114450761Y-96146952D01*
X114355523Y-96194571D01*
X114307904Y-96242190D01*
X114260285Y-96337428D01*
X114260285Y-96527904D01*
X114307904Y-96623142D01*
X114355523Y-96670761D01*
X114450761Y-96718380D01*
X114641238Y-96718380D01*
X114736476Y-96670761D01*
X114784095Y-96623142D01*
X114831714Y-96527904D01*
X114831714Y-96337428D01*
X114784095Y-96242190D01*
X114736476Y-96194571D01*
X114641238Y-96146952D01*
G04 #@! TO.C,C9*
X92797333Y-100179142D02*
X92749714Y-100226761D01*
X92606857Y-100274380D01*
X92511619Y-100274380D01*
X92368761Y-100226761D01*
X92273523Y-100131523D01*
X92225904Y-100036285D01*
X92178285Y-99845809D01*
X92178285Y-99702952D01*
X92225904Y-99512476D01*
X92273523Y-99417238D01*
X92368761Y-99322000D01*
X92511619Y-99274380D01*
X92606857Y-99274380D01*
X92749714Y-99322000D01*
X92797333Y-99369619D01*
X93273523Y-100274380D02*
X93464000Y-100274380D01*
X93559238Y-100226761D01*
X93606857Y-100179142D01*
X93702095Y-100036285D01*
X93749714Y-99845809D01*
X93749714Y-99464857D01*
X93702095Y-99369619D01*
X93654476Y-99322000D01*
X93559238Y-99274380D01*
X93368761Y-99274380D01*
X93273523Y-99322000D01*
X93225904Y-99369619D01*
X93178285Y-99464857D01*
X93178285Y-99702952D01*
X93225904Y-99798190D01*
X93273523Y-99845809D01*
X93368761Y-99893428D01*
X93559238Y-99893428D01*
X93654476Y-99845809D01*
X93702095Y-99798190D01*
X93749714Y-99702952D01*
G04 #@! TO.C,R1*
X60793333Y-112720380D02*
X60460000Y-112244190D01*
X60221904Y-112720380D02*
X60221904Y-111720380D01*
X60602857Y-111720380D01*
X60698095Y-111768000D01*
X60745714Y-111815619D01*
X60793333Y-111910857D01*
X60793333Y-112053714D01*
X60745714Y-112148952D01*
X60698095Y-112196571D01*
X60602857Y-112244190D01*
X60221904Y-112244190D01*
X61745714Y-112720380D02*
X61174285Y-112720380D01*
X61460000Y-112720380D02*
X61460000Y-111720380D01*
X61364761Y-111863238D01*
X61269523Y-111958476D01*
X61174285Y-112006095D01*
G04 #@! TO.C,R3*
X60793333Y-108656380D02*
X60460000Y-108180190D01*
X60221904Y-108656380D02*
X60221904Y-107656380D01*
X60602857Y-107656380D01*
X60698095Y-107704000D01*
X60745714Y-107751619D01*
X60793333Y-107846857D01*
X60793333Y-107989714D01*
X60745714Y-108084952D01*
X60698095Y-108132571D01*
X60602857Y-108180190D01*
X60221904Y-108180190D01*
X61126666Y-107656380D02*
X61745714Y-107656380D01*
X61412380Y-108037333D01*
X61555238Y-108037333D01*
X61650476Y-108084952D01*
X61698095Y-108132571D01*
X61745714Y-108227809D01*
X61745714Y-108465904D01*
X61698095Y-108561142D01*
X61650476Y-108608761D01*
X61555238Y-108656380D01*
X61269523Y-108656380D01*
X61174285Y-108608761D01*
X61126666Y-108561142D01*
G04 #@! TO.C,R4*
X60793333Y-120213380D02*
X60460000Y-119737190D01*
X60221904Y-120213380D02*
X60221904Y-119213380D01*
X60602857Y-119213380D01*
X60698095Y-119261000D01*
X60745714Y-119308619D01*
X60793333Y-119403857D01*
X60793333Y-119546714D01*
X60745714Y-119641952D01*
X60698095Y-119689571D01*
X60602857Y-119737190D01*
X60221904Y-119737190D01*
X61650476Y-119546714D02*
X61650476Y-120213380D01*
X61412380Y-119165761D02*
X61174285Y-119880047D01*
X61793333Y-119880047D01*
G04 #@! TO.C,R5*
X60793333Y-117673380D02*
X60460000Y-117197190D01*
X60221904Y-117673380D02*
X60221904Y-116673380D01*
X60602857Y-116673380D01*
X60698095Y-116721000D01*
X60745714Y-116768619D01*
X60793333Y-116863857D01*
X60793333Y-117006714D01*
X60745714Y-117101952D01*
X60698095Y-117149571D01*
X60602857Y-117197190D01*
X60221904Y-117197190D01*
X61698095Y-116673380D02*
X61221904Y-116673380D01*
X61174285Y-117149571D01*
X61221904Y-117101952D01*
X61317142Y-117054333D01*
X61555238Y-117054333D01*
X61650476Y-117101952D01*
X61698095Y-117149571D01*
X61745714Y-117244809D01*
X61745714Y-117482904D01*
X61698095Y-117578142D01*
X61650476Y-117625761D01*
X61555238Y-117673380D01*
X61317142Y-117673380D01*
X61221904Y-117625761D01*
X61174285Y-117578142D01*
G04 #@! TO.C,R6*
X111847333Y-102687380D02*
X111514000Y-102211190D01*
X111275904Y-102687380D02*
X111275904Y-101687380D01*
X111656857Y-101687380D01*
X111752095Y-101735000D01*
X111799714Y-101782619D01*
X111847333Y-101877857D01*
X111847333Y-102020714D01*
X111799714Y-102115952D01*
X111752095Y-102163571D01*
X111656857Y-102211190D01*
X111275904Y-102211190D01*
X112704476Y-101687380D02*
X112514000Y-101687380D01*
X112418761Y-101735000D01*
X112371142Y-101782619D01*
X112275904Y-101925476D01*
X112228285Y-102115952D01*
X112228285Y-102496904D01*
X112275904Y-102592142D01*
X112323523Y-102639761D01*
X112418761Y-102687380D01*
X112609238Y-102687380D01*
X112704476Y-102639761D01*
X112752095Y-102592142D01*
X112799714Y-102496904D01*
X112799714Y-102258809D01*
X112752095Y-102163571D01*
X112704476Y-102115952D01*
X112609238Y-102068333D01*
X112418761Y-102068333D01*
X112323523Y-102115952D01*
X112275904Y-102163571D01*
X112228285Y-102258809D01*
G04 #@! TO.C,R7*
X113752333Y-102687380D02*
X113419000Y-102211190D01*
X113180904Y-102687380D02*
X113180904Y-101687380D01*
X113561857Y-101687380D01*
X113657095Y-101735000D01*
X113704714Y-101782619D01*
X113752333Y-101877857D01*
X113752333Y-102020714D01*
X113704714Y-102115952D01*
X113657095Y-102163571D01*
X113561857Y-102211190D01*
X113180904Y-102211190D01*
X114085666Y-101687380D02*
X114752333Y-101687380D01*
X114323761Y-102687380D01*
G04 #@! TO.C,R8*
X39838333Y-104912380D02*
X39505000Y-104436190D01*
X39266904Y-104912380D02*
X39266904Y-103912380D01*
X39647857Y-103912380D01*
X39743095Y-103960000D01*
X39790714Y-104007619D01*
X39838333Y-104102857D01*
X39838333Y-104245714D01*
X39790714Y-104340952D01*
X39743095Y-104388571D01*
X39647857Y-104436190D01*
X39266904Y-104436190D01*
X40409761Y-104340952D02*
X40314523Y-104293333D01*
X40266904Y-104245714D01*
X40219285Y-104150476D01*
X40219285Y-104102857D01*
X40266904Y-104007619D01*
X40314523Y-103960000D01*
X40409761Y-103912380D01*
X40600238Y-103912380D01*
X40695476Y-103960000D01*
X40743095Y-104007619D01*
X40790714Y-104102857D01*
X40790714Y-104150476D01*
X40743095Y-104245714D01*
X40695476Y-104293333D01*
X40600238Y-104340952D01*
X40409761Y-104340952D01*
X40314523Y-104388571D01*
X40266904Y-104436190D01*
X40219285Y-104531428D01*
X40219285Y-104721904D01*
X40266904Y-104817142D01*
X40314523Y-104864761D01*
X40409761Y-104912380D01*
X40600238Y-104912380D01*
X40695476Y-104864761D01*
X40743095Y-104817142D01*
X40790714Y-104721904D01*
X40790714Y-104531428D01*
X40743095Y-104436190D01*
X40695476Y-104388571D01*
X40600238Y-104340952D01*
G04 #@! TO.C,R9*
X60793333Y-110688380D02*
X60460000Y-110212190D01*
X60221904Y-110688380D02*
X60221904Y-109688380D01*
X60602857Y-109688380D01*
X60698095Y-109736000D01*
X60745714Y-109783619D01*
X60793333Y-109878857D01*
X60793333Y-110021714D01*
X60745714Y-110116952D01*
X60698095Y-110164571D01*
X60602857Y-110212190D01*
X60221904Y-110212190D01*
X61269523Y-110688380D02*
X61460000Y-110688380D01*
X61555238Y-110640761D01*
X61602857Y-110593142D01*
X61698095Y-110450285D01*
X61745714Y-110259809D01*
X61745714Y-109878857D01*
X61698095Y-109783619D01*
X61650476Y-109736000D01*
X61555238Y-109688380D01*
X61364761Y-109688380D01*
X61269523Y-109736000D01*
X61221904Y-109783619D01*
X61174285Y-109878857D01*
X61174285Y-110116952D01*
X61221904Y-110212190D01*
X61269523Y-110259809D01*
X61364761Y-110307428D01*
X61555238Y-110307428D01*
X61650476Y-110259809D01*
X61698095Y-110212190D01*
X61745714Y-110116952D01*
G04 #@! TO.C,C10*
X100957142Y-111990142D02*
X100909523Y-112037761D01*
X100766666Y-112085380D01*
X100671428Y-112085380D01*
X100528571Y-112037761D01*
X100433333Y-111942523D01*
X100385714Y-111847285D01*
X100338095Y-111656809D01*
X100338095Y-111513952D01*
X100385714Y-111323476D01*
X100433333Y-111228238D01*
X100528571Y-111133000D01*
X100671428Y-111085380D01*
X100766666Y-111085380D01*
X100909523Y-111133000D01*
X100957142Y-111180619D01*
X101909523Y-112085380D02*
X101338095Y-112085380D01*
X101623809Y-112085380D02*
X101623809Y-111085380D01*
X101528571Y-111228238D01*
X101433333Y-111323476D01*
X101338095Y-111371095D01*
X102528571Y-111085380D02*
X102623809Y-111085380D01*
X102719047Y-111133000D01*
X102766666Y-111180619D01*
X102814285Y-111275857D01*
X102861904Y-111466333D01*
X102861904Y-111704428D01*
X102814285Y-111894904D01*
X102766666Y-111990142D01*
X102719047Y-112037761D01*
X102623809Y-112085380D01*
X102528571Y-112085380D01*
X102433333Y-112037761D01*
X102385714Y-111990142D01*
X102338095Y-111894904D01*
X102290476Y-111704428D01*
X102290476Y-111466333D01*
X102338095Y-111275857D01*
X102385714Y-111180619D01*
X102433333Y-111133000D01*
X102528571Y-111085380D01*
G04 #@! TO.C,H1*
X26543095Y-107132380D02*
X26543095Y-106132380D01*
X26543095Y-106608571D02*
X27114523Y-106608571D01*
X27114523Y-107132380D02*
X27114523Y-106132380D01*
X28114523Y-107132380D02*
X27543095Y-107132380D01*
X27828809Y-107132380D02*
X27828809Y-106132380D01*
X27733571Y-106275238D01*
X27638333Y-106370476D01*
X27543095Y-106418095D01*
G04 #@! TO.C,H2*
X120396095Y-107132380D02*
X120396095Y-106132380D01*
X120396095Y-106608571D02*
X120967523Y-106608571D01*
X120967523Y-107132380D02*
X120967523Y-106132380D01*
X121396095Y-106227619D02*
X121443714Y-106180000D01*
X121538952Y-106132380D01*
X121777047Y-106132380D01*
X121872285Y-106180000D01*
X121919904Y-106227619D01*
X121967523Y-106322857D01*
X121967523Y-106418095D01*
X121919904Y-106560952D01*
X121348476Y-107132380D01*
X121967523Y-107132380D01*
G04 #@! TO.C,J3*
X120824666Y-93388380D02*
X120824666Y-94102666D01*
X120777047Y-94245523D01*
X120681809Y-94340761D01*
X120538952Y-94388380D01*
X120443714Y-94388380D01*
X121205619Y-93388380D02*
X121824666Y-93388380D01*
X121491333Y-93769333D01*
X121634190Y-93769333D01*
X121729428Y-93816952D01*
X121777047Y-93864571D01*
X121824666Y-93959809D01*
X121824666Y-94197904D01*
X121777047Y-94293142D01*
X121729428Y-94340761D01*
X121634190Y-94388380D01*
X121348476Y-94388380D01*
X121253238Y-94340761D01*
X121205619Y-94293142D01*
G04 #@! TO.C,J2*
X117903666Y-118578380D02*
X117903666Y-119292666D01*
X117856047Y-119435523D01*
X117760809Y-119530761D01*
X117617952Y-119578380D01*
X117522714Y-119578380D01*
X118332238Y-118673619D02*
X118379857Y-118626000D01*
X118475095Y-118578380D01*
X118713190Y-118578380D01*
X118808428Y-118626000D01*
X118856047Y-118673619D01*
X118903666Y-118768857D01*
X118903666Y-118864095D01*
X118856047Y-119006952D01*
X118284619Y-119578380D01*
X118903666Y-119578380D01*
G04 #@! TO.C,D1*
X117498904Y-114117380D02*
X117498904Y-113117380D01*
X117737000Y-113117380D01*
X117879857Y-113165000D01*
X117975095Y-113260238D01*
X118022714Y-113355476D01*
X118070333Y-113545952D01*
X118070333Y-113688809D01*
X118022714Y-113879285D01*
X117975095Y-113974523D01*
X117879857Y-114069761D01*
X117737000Y-114117380D01*
X117498904Y-114117380D01*
X119022714Y-114117380D02*
X118451285Y-114117380D01*
X118737000Y-114117380D02*
X118737000Y-113117380D01*
X118641761Y-113260238D01*
X118546523Y-113355476D01*
X118451285Y-113403095D01*
G04 #@! TO.C,D2*
X117498904Y-116784380D02*
X117498904Y-115784380D01*
X117737000Y-115784380D01*
X117879857Y-115832000D01*
X117975095Y-115927238D01*
X118022714Y-116022476D01*
X118070333Y-116212952D01*
X118070333Y-116355809D01*
X118022714Y-116546285D01*
X117975095Y-116641523D01*
X117879857Y-116736761D01*
X117737000Y-116784380D01*
X117498904Y-116784380D01*
X118451285Y-115879619D02*
X118498904Y-115832000D01*
X118594142Y-115784380D01*
X118832238Y-115784380D01*
X118927476Y-115832000D01*
X118975095Y-115879619D01*
X119022714Y-115974857D01*
X119022714Y-116070095D01*
X118975095Y-116212952D01*
X118403666Y-116784380D01*
X119022714Y-116784380D01*
G04 #@! TO.C,R10*
X116959142Y-111450380D02*
X116625809Y-110974190D01*
X116387714Y-111450380D02*
X116387714Y-110450380D01*
X116768666Y-110450380D01*
X116863904Y-110498000D01*
X116911523Y-110545619D01*
X116959142Y-110640857D01*
X116959142Y-110783714D01*
X116911523Y-110878952D01*
X116863904Y-110926571D01*
X116768666Y-110974190D01*
X116387714Y-110974190D01*
X117911523Y-111450380D02*
X117340095Y-111450380D01*
X117625809Y-111450380D02*
X117625809Y-110450380D01*
X117530571Y-110593238D01*
X117435333Y-110688476D01*
X117340095Y-110736095D01*
X118530571Y-110450380D02*
X118625809Y-110450380D01*
X118721047Y-110498000D01*
X118768666Y-110545619D01*
X118816285Y-110640857D01*
X118863904Y-110831333D01*
X118863904Y-111069428D01*
X118816285Y-111259904D01*
X118768666Y-111355142D01*
X118721047Y-111402761D01*
X118625809Y-111450380D01*
X118530571Y-111450380D01*
X118435333Y-111402761D01*
X118387714Y-111355142D01*
X118340095Y-111259904D01*
X118292476Y-111069428D01*
X118292476Y-110831333D01*
X118340095Y-110640857D01*
X118387714Y-110545619D01*
X118435333Y-110498000D01*
X118530571Y-110450380D01*
G04 #@! TO.C,R11*
X116959142Y-112720380D02*
X116625809Y-112244190D01*
X116387714Y-112720380D02*
X116387714Y-111720380D01*
X116768666Y-111720380D01*
X116863904Y-111768000D01*
X116911523Y-111815619D01*
X116959142Y-111910857D01*
X116959142Y-112053714D01*
X116911523Y-112148952D01*
X116863904Y-112196571D01*
X116768666Y-112244190D01*
X116387714Y-112244190D01*
X117911523Y-112720380D02*
X117340095Y-112720380D01*
X117625809Y-112720380D02*
X117625809Y-111720380D01*
X117530571Y-111863238D01*
X117435333Y-111958476D01*
X117340095Y-112006095D01*
X118863904Y-112720380D02*
X118292476Y-112720380D01*
X118578190Y-112720380D02*
X118578190Y-111720380D01*
X118482952Y-111863238D01*
X118387714Y-111958476D01*
X118292476Y-112006095D01*
G04 #@! TD*
M02*
